<?xml version="1.0" encoding="UTF-8" standalone="no"?>
<!DOCTYPE svg PUBLIC "-//W3C//DTD SVG 1.1//EN"
 "http://www.w3.org/Graphics/SVG/1.1/DTD/svg11.dtd">
<!-- Generated by graphviz version 2.43.0 (0)
 -->
<!-- Title: 05&#45;eprocurement&#45;cycle Pages: 1 -->
<svg width="843pt" height="175pt"
 viewBox="0.00 0.00 843.00 175.47" xmlns="http://www.w3.org/2000/svg" xmlns:xlink="http://www.w3.org/1999/xlink">
<g id="graph0" class="graph" transform="scale(1 1) rotate(0) translate(4 171.47)">
<title>05&#45;eprocurement&#45;cycle</title>
<!-- S2P -->
<g id="node1" class="node">
<title>S2P</title>
<path fill="#ffe0b2" stroke="#999999" d="M160,-75.47C160,-75.47 12,-75.47 12,-75.47 6,-75.47 0,-69.47 0,-63.47 0,-63.47 0,-36.47 0,-36.47 0,-30.47 6,-24.47 12,-24.47 12,-24.47 160,-24.47 160,-24.47 166,-24.47 172,-30.47 172,-36.47 172,-36.47 172,-63.47 172,-63.47 172,-69.47 166,-75.47 160,-75.47"/>
<text text-anchor="start" x="23.5" y="-58.67" font-family="Helvetica,sans-Serif" font-weight="bold" font-size="11.00" fill="#222222">Source&#45;to&#45;Pay (S2P)</text>
<text text-anchor="start" x="21" y="-47.67" font-family="Helvetica,sans-Serif" font-size="11.00" fill="#222222">полный цикл закупки</text>
<text text-anchor="start" x="14" y="-36.67" font-family="Helvetica,sans-Serif" font-size="11.00" fill="#222222">от стратегии до оплаты</text>
</g>
<!-- S2C -->
<g id="node2" class="node">
<title>S2C</title>
<path fill="#bbdefb" stroke="#999999" d="M363,-167.47C363,-167.47 229,-167.47 229,-167.47 223,-167.47 217,-161.47 217,-155.47 217,-155.47 217,-106.47 217,-106.47 217,-100.47 223,-94.47 229,-94.47 229,-94.47 363,-94.47 363,-94.47 369,-94.47 375,-100.47 375,-106.47 375,-106.47 375,-155.47 375,-155.47 375,-161.47 369,-167.47 363,-167.47"/>
<text text-anchor="start" x="237" y="-150.67" font-family="Helvetica,sans-Serif" font-weight="bold" font-size="11.00" fill="#222222">Source&#45;to&#45;Contract</text>
<text text-anchor="start" x="247.5" y="-139.67" font-family="Helvetica,sans-Serif" font-size="11.00" fill="#222222">— spend analysis</text>
<text text-anchor="start" x="265" y="-128.67" font-family="Helvetica,sans-Serif" font-size="11.00" fill="#222222">— sourcing</text>
<text text-anchor="start" x="231" y="-117.67" font-family="Helvetica,sans-Serif" font-size="11.00" fill="#222222">— supplier qualification</text>
<text text-anchor="start" x="265.5" y="-106.67" font-family="Helvetica,sans-Serif" font-size="11.00" fill="#222222">— contract</text>
</g>
<!-- S2P&#45;&gt;S2C -->
<g id="edge1" class="edge">
<title>S2P&#45;&gt;S2C</title>
<path fill="none" stroke="#555555" d="M152.53,-75.49C170.74,-82.58 190.79,-90.39 209.95,-97.85"/>
<polygon fill="#555555" stroke="#555555" points="209.27,-100.22 216.69,-100.47 211.05,-95.65 209.27,-100.22"/>
</g>
<!-- P2P -->
<g id="node3" class="node">
<title>P2P</title>
<path fill="#e1bee7" stroke="#999999" d="M609,-110.97C609,-110.97 475,-110.97 475,-110.97 469,-110.97 463,-104.97 463,-98.97 463,-98.97 463,-38.97 463,-38.97 463,-32.97 469,-26.97 475,-26.97 475,-26.97 609,-26.97 609,-26.97 615,-26.97 621,-32.97 621,-38.97 621,-38.97 621,-98.97 621,-98.97 621,-104.97 615,-110.97 609,-110.97"/>
<text text-anchor="start" x="477" y="-94.17" font-family="Helvetica,sans-Serif" font-weight="bold" font-size="11.00" fill="#222222">Procure&#45;to&#45;Pay (P2P)</text>
<text text-anchor="start" x="505.5" y="-83.17" font-family="Helvetica,sans-Serif" font-size="11.00" fill="#222222">— requisition</text>
<text text-anchor="start" x="477" y="-72.17" font-family="Helvetica,sans-Serif" font-size="11.00" fill="#222222">— PO (Purchase Order)</text>
<text text-anchor="start" x="515" y="-61.17" font-family="Helvetica,sans-Serif" font-size="11.00" fill="#222222">— receipt</text>
<text text-anchor="start" x="495.5" y="-50.17" font-family="Helvetica,sans-Serif" font-size="11.00" fill="#222222">— invoice match</text>
<text text-anchor="start" x="510" y="-39.17" font-family="Helvetica,sans-Serif" font-size="11.00" fill="#222222">— payment</text>
</g>
<!-- S2P&#45;&gt;P2P -->
<g id="edge2" class="edge">
<title>S2P&#45;&gt;P2P</title>
<path fill="none" stroke="#555555" d="M172.13,-53.53C253.13,-56.92 374.36,-62 455.49,-65.39"/>
<polygon fill="#555555" stroke="#555555" points="455.62,-67.85 462.72,-65.7 455.83,-62.96 455.62,-67.85"/>
</g>
<!-- AN -->
<g id="node4" class="node">
<title>AN</title>
<path fill="#c8e6c9" stroke="#999999" d="M823,-105.47C823,-105.47 713,-105.47 713,-105.47 707,-105.47 701,-99.47 701,-93.47 701,-93.47 701,-44.47 701,-44.47 701,-38.47 707,-32.47 713,-32.47 713,-32.47 823,-32.47 823,-32.47 829,-32.47 835,-38.47 835,-44.47 835,-44.47 835,-93.47 835,-93.47 835,-99.47 829,-105.47 823,-105.47"/>
<text text-anchor="start" x="716.5" y="-88.67" font-family="Helvetica,sans-Serif" font-weight="bold" font-size="11.00" fill="#222222">Analytics &amp; SRM</text>
<text text-anchor="start" x="730" y="-77.67" font-family="Helvetica,sans-Serif" font-size="11.00" fill="#222222">— scorecards</text>
<text text-anchor="start" x="719" y="-66.67" font-family="Helvetica,sans-Serif" font-size="11.00" fill="#222222">— spend visibility</text>
<text text-anchor="start" x="715" y="-55.67" font-family="Helvetica,sans-Serif" font-size="11.00" fill="#222222">— savings tracking</text>
<text text-anchor="start" x="720.5" y="-44.67" font-family="Helvetica,sans-Serif" font-size="11.00" fill="#222222">— supplier portal</text>
</g>
<!-- S2P&#45;&gt;AN -->
<g id="edge3" class="edge">
<title>S2P&#45;&gt;AN</title>
<path fill="none" stroke="#555555" d="M172.37,-30.96C278.43,-10.34 464.52,16.01 621,-12.97 645.54,-17.52 671.28,-26.02 694.2,-35.05"/>
<polygon fill="#555555" stroke="#555555" points="693.49,-37.4 700.9,-37.74 695.31,-32.86 693.49,-37.4"/>
</g>
<!-- S2C&#45;&gt;P2P -->
<g id="edge4" class="edge">
<title>S2C&#45;&gt;P2P</title>
<path fill="none" stroke="#555555" d="M375.21,-111.1C400.93,-104.56 429.64,-97.27 455.85,-90.61"/>
<polygon fill="#555555" stroke="#555555" points="456.63,-92.94 462.81,-88.84 455.43,-88.19 456.63,-92.94"/>
<text text-anchor="middle" x="419" y="-107.77" font-family="Helvetica,sans-Serif" font-size="9.00" fill="#555555">контракт</text>
</g>
<!-- P2P&#45;&gt;AN -->
<g id="edge5" class="edge">
<title>P2P&#45;&gt;AN</title>
<path fill="none" stroke="#555555" d="M621.03,-68.97C644.6,-68.97 670.39,-68.97 693.65,-68.97"/>
<polygon fill="#555555" stroke="#555555" points="693.78,-71.42 700.78,-68.97 693.78,-66.52 693.78,-71.42"/>
<text text-anchor="middle" x="661" y="-71.77" font-family="Helvetica,sans-Serif" font-size="9.00" fill="#555555">данные</text>
</g>
<!-- AN&#45;&gt;S2C -->
<g id="edge6" class="edge">
<title>AN&#45;&gt;S2C</title>
<path fill="none" stroke="#555555" d="M700.9,-100.53C676.38,-110.69 647.97,-120.68 621,-125.97 541.11,-141.65 447.99,-141.2 382.14,-137.85"/>
<polygon fill="#555555" stroke="#555555" points="382.18,-135.4 375.06,-137.47 381.92,-140.29 382.18,-135.4"/>
<text text-anchor="middle" x="542" y="-141.77" font-family="Helvetica,sans-Serif" font-size="9.00" fill="#555555">insights</text>
</g>
</g>
</svg>
