<?xml version="1.0" encoding="UTF-8" standalone="no"?>
<!DOCTYPE svg PUBLIC "-//W3C//DTD SVG 1.1//EN"
 "http://www.w3.org/Graphics/SVG/1.1/DTD/svg11.dtd">
<!-- Generated by graphviz version 2.43.0 (0)
 -->
<!-- Title: 07&#45;cm&#45;evolution Pages: 1 -->
<svg width="1100pt" height="70pt"
 viewBox="0.00 0.00 1100.00 70.00" xmlns="http://www.w3.org/2000/svg" xmlns:xlink="http://www.w3.org/1999/xlink">
<g id="graph0" class="graph" transform="scale(1 1) rotate(0) translate(4 66)">
<title>07&#45;cm&#45;evolution</title>
<!-- P -->
<g id="node1" class="node">
<title>P</title>
<path fill="#ffcdd2" stroke="#999999" d="M129,-62C129,-62 12,-62 12,-62 6,-62 0,-56 0,-50 0,-50 0,-12 0,-12 0,-6 6,0 12,0 12,0 129,0 129,0 135,0 141,-6 141,-12 141,-12 141,-50 141,-50 141,-56 135,-62 129,-62"/>
<text text-anchor="start" x="49" y="-45.2" font-family="Helvetica,sans-Serif" font-weight="bold" font-size="11.00" fill="#222222">1980&#45;е</text>
<text text-anchor="start" x="40" y="-34.2" font-family="Helvetica,sans-Serif" font-size="11.00" fill="#222222">Purchasing</text>
<text text-anchor="start" x="14" y="-23.2" font-family="Helvetica,sans-Serif" font-size="11.00" fill="#222222">закупки по объёму</text>
<text text-anchor="start" x="50.5" y="-12.2" font-family="Helvetica,sans-Serif" font-size="11.00" fill="#222222">и цене</text>
</g>
<!-- M -->
<g id="node2" class="node">
<title>M</title>
<path fill="#fff9c4" stroke="#999999" d="M291,-62C291,-62 196,-62 196,-62 190,-62 184,-56 184,-50 184,-50 184,-12 184,-12 184,-6 190,0 196,0 196,0 291,0 291,0 297,0 303,-6 303,-12 303,-12 303,-50 303,-50 303,-56 297,-62 291,-62"/>
<text text-anchor="start" x="222" y="-45.2" font-family="Helvetica,sans-Serif" font-weight="bold" font-size="11.00" fill="#222222">1990&#45;е</text>
<text text-anchor="start" x="203.5" y="-34.2" font-family="Helvetica,sans-Serif" font-size="11.00" fill="#222222">Merchandising</text>
<text text-anchor="start" x="208.5" y="-23.2" font-family="Helvetica,sans-Serif" font-size="11.00" fill="#222222">управление</text>
<text text-anchor="start" x="198" y="-12.2" font-family="Helvetica,sans-Serif" font-size="11.00" fill="#222222">ассортиментом</text>
</g>
<!-- P&#45;&gt;M -->
<g id="edge1" class="edge">
<title>P&#45;&gt;M</title>
<path fill="none" stroke="#555555" d="M141.05,-31C152.84,-31 165.06,-31 176.75,-31"/>
<polygon fill="#555555" stroke="#555555" points="176.95,-33.45 183.95,-31 176.95,-28.55 176.95,-33.45"/>
</g>
<!-- ECR -->
<g id="node3" class="node">
<title>ECR</title>
<path fill="#bbdefb" stroke="#999999" d="M466,-62C466,-62 358,-62 358,-62 352,-62 346,-56 346,-50 346,-50 346,-12 346,-12 346,-6 352,0 358,0 358,0 466,0 466,0 472,0 478,-6 478,-12 478,-12 478,-50 478,-50 478,-56 472,-62 466,-62"/>
<text text-anchor="start" x="392" y="-45.2" font-family="Helvetica,sans-Serif" font-weight="bold" font-size="11.00" fill="#222222">1992+</text>
<text text-anchor="start" x="401" y="-34.2" font-family="Helvetica,sans-Serif" font-size="11.00" fill="#222222">ECR</text>
<text text-anchor="start" x="360" y="-23.2" font-family="Helvetica,sans-Serif" font-size="11.00" fill="#222222">Efficient Consumer</text>
<text text-anchor="start" x="385" y="-12.2" font-family="Helvetica,sans-Serif" font-size="11.00" fill="#222222">Response</text>
</g>
<!-- M&#45;&gt;ECR -->
<g id="edge2" class="edge">
<title>M&#45;&gt;ECR</title>
<path fill="none" stroke="#555555" d="M303.2,-31C314.6,-31 326.67,-31 338.45,-31"/>
<polygon fill="#555555" stroke="#555555" points="338.74,-33.45 345.74,-31 338.74,-28.55 338.74,-33.45"/>
</g>
<!-- CM -->
<g id="node4" class="node">
<title>CM</title>
<path fill="#e1bee7" stroke="#999999" d="M699,-62C699,-62 533,-62 533,-62 527,-62 521,-56 521,-50 521,-50 521,-12 521,-12 521,-6 527,0 533,0 533,0 699,0 699,0 705,0 711,-6 711,-12 711,-12 711,-50 711,-50 711,-56 705,-62 699,-62"/>
<text text-anchor="start" x="594.5" y="-45.2" font-family="Helvetica,sans-Serif" font-weight="bold" font-size="11.00" fill="#222222">2000&#45;е</text>
<text text-anchor="start" x="552.5" y="-34.2" font-family="Helvetica,sans-Serif" font-size="11.00" fill="#222222">Category Management</text>
<text text-anchor="start" x="535" y="-23.2" font-family="Helvetica,sans-Serif" font-size="11.00" fill="#222222">категория как business unit</text>
<text text-anchor="start" x="576.5" y="-12.2" font-family="Helvetica,sans-Serif" font-size="11.00" fill="#222222">8&#45;step Nielsen</text>
</g>
<!-- ECR&#45;&gt;CM -->
<g id="edge3" class="edge">
<title>ECR&#45;&gt;CM</title>
<path fill="none" stroke="#555555" d="M478.03,-31C489.4,-31 501.48,-31 513.57,-31"/>
<polygon fill="#555555" stroke="#555555" points="513.68,-33.45 520.68,-31 513.68,-28.55 513.68,-33.45"/>
</g>
<!-- JBP -->
<g id="node5" class="node">
<title>JBP</title>
<path fill="#e8f0fe" stroke="#999999" d="M897,-62C897,-62 766,-62 766,-62 760,-62 754,-56 754,-50 754,-50 754,-12 754,-12 754,-6 760,0 766,0 766,0 897,0 897,0 903,0 909,-6 909,-12 909,-12 909,-50 909,-50 909,-56 903,-62 897,-62"/>
<text text-anchor="start" x="810" y="-45.2" font-family="Helvetica,sans-Serif" font-weight="bold" font-size="11.00" fill="#222222">2010&#45;е</text>
<text text-anchor="start" x="768" y="-34.2" font-family="Helvetica,sans-Serif" font-size="11.00" fill="#222222">Joint Business Planning</text>
<text text-anchor="start" x="778" y="-23.2" font-family="Helvetica,sans-Serif" font-size="11.00" fill="#222222">ретейлер + бренд</text>
<text text-anchor="start" x="790.5" y="-12.2" font-family="Helvetica,sans-Serif" font-size="11.00" fill="#222222">как партнёры</text>
</g>
<!-- CM&#45;&gt;JBP -->
<g id="edge4" class="edge">
<title>CM&#45;&gt;JBP</title>
<path fill="none" stroke="#555555" d="M711.27,-31C723.01,-31 734.97,-31 746.54,-31"/>
<polygon fill="#555555" stroke="#555555" points="746.7,-33.45 753.7,-31 746.7,-28.55 746.7,-33.45"/>
</g>
<!-- D -->
<g id="node6" class="node">
<title>D</title>
<path fill="#c8e6c9" stroke="#999999" d="M1080,-62C1080,-62 964,-62 964,-62 958,-62 952,-56 952,-50 952,-50 952,-12 952,-12 952,-6 958,0 964,0 964,0 1080,0 1080,0 1086,0 1092,-6 1092,-12 1092,-12 1092,-50 1092,-50 1092,-56 1086,-62 1080,-62"/>
<text text-anchor="start" x="1000.5" y="-45.2" font-family="Helvetica,sans-Serif" font-weight="bold" font-size="11.00" fill="#222222">2020&#45;е</text>
<text text-anchor="start" x="978" y="-34.2" font-family="Helvetica,sans-Serif" font-size="11.00" fill="#222222">Data&#45;Driven CM</text>
<text text-anchor="start" x="966" y="-23.2" font-family="Helvetica,sans-Serif" font-size="11.00" fill="#222222">AI, real&#45;time pricing,</text>
<text text-anchor="start" x="980.5" y="-12.2" font-family="Helvetica,sans-Serif" font-size="11.00" fill="#222222">ML assortment</text>
</g>
<!-- JBP&#45;&gt;D -->
<g id="edge5" class="edge">
<title>JBP&#45;&gt;D</title>
<path fill="none" stroke="#555555" d="M909.17,-31C920.9,-31 933.01,-31 944.74,-31"/>
<polygon fill="#555555" stroke="#555555" points="944.98,-33.45 951.98,-31 944.98,-28.55 944.98,-33.45"/>
</g>
</g>
</svg>
