<?xml version="1.0" encoding="UTF-8" standalone="no"?>
<!DOCTYPE svg PUBLIC "-//W3C//DTD SVG 1.1//EN"
 "http://www.w3.org/Graphics/SVG/1.1/DTD/svg11.dtd">
<!-- Generated by graphviz version 2.43.0 (0)
 -->
<!-- Title: 09&#45;conversion&#45;funnel&#45;cro Pages: 1 -->
<svg width="388pt" height="540pt"
 viewBox="0.00 0.00 387.50 540.00" xmlns="http://www.w3.org/2000/svg" xmlns:xlink="http://www.w3.org/1999/xlink">
<g id="graph0" class="graph" transform="scale(1 1) rotate(0) translate(4 536)">
<title>09&#45;conversion&#45;funnel&#45;cro</title>
<!-- V -->
<g id="node1" class="node">
<title>V</title>
<path fill="#bbdefb" stroke="#999999" d="M128,-405C128,-405 12,-405 12,-405 6,-405 0,-399 0,-393 0,-393 0,-366 0,-366 0,-360 6,-354 12,-354 12,-354 128,-354 128,-354 134,-354 140,-360 140,-366 140,-366 140,-393 140,-393 140,-399 134,-405 128,-405"/>
<text text-anchor="start" x="56" y="-388.2" font-family="Helvetica,sans-Serif" font-weight="bold" font-size="11.00" fill="#222222">Visit</text>
<text text-anchor="start" x="14" y="-377.2" font-family="Helvetica,sans-Serif" font-size="11.00" fill="#222222">уникальный visitor</text>
<text text-anchor="start" x="14" y="-366.2" font-family="Helvetica,sans-Serif" font-size="11.00" fill="#222222">на сайт / страницу</text>
</g>
<!-- PV -->
<g id="node2" class="node">
<title>PV</title>
<path fill="#bbdefb" stroke="#999999" d="M186.5,-311C186.5,-311 49.5,-311 49.5,-311 43.5,-311 37.5,-305 37.5,-299 37.5,-299 37.5,-283 37.5,-283 37.5,-277 43.5,-271 49.5,-271 49.5,-271 186.5,-271 186.5,-271 192.5,-271 198.5,-277 198.5,-283 198.5,-283 198.5,-299 198.5,-299 198.5,-305 192.5,-311 186.5,-311"/>
<text text-anchor="start" x="77" y="-294.2" font-family="Helvetica,sans-Serif" font-weight="bold" font-size="11.00" fill="#222222">Product View</text>
<text text-anchor="start" x="51.5" y="-283.2" font-family="Helvetica,sans-Serif" font-size="11.00" fill="#222222">просмотр product page</text>
</g>
<!-- V&#45;&gt;PV -->
<g id="edge1" class="edge">
<title>V&#45;&gt;PV</title>
<path fill="none" stroke="#555555" d="M83.63,-353.94C89.99,-342.48 97.55,-328.85 103.96,-317.29"/>
<polygon fill="#555555" stroke="#555555" points="106.14,-318.43 107.39,-311.12 101.85,-316.05 106.14,-318.43"/>
</g>
<!-- AC -->
<g id="node3" class="node">
<title>AC</title>
<path fill="#e1bee7" stroke="#999999" d="M245.5,-228C245.5,-228 108.5,-228 108.5,-228 102.5,-228 96.5,-222 96.5,-216 96.5,-216 96.5,-189 96.5,-189 96.5,-183 102.5,-177 108.5,-177 108.5,-177 245.5,-177 245.5,-177 251.5,-177 257.5,-183 257.5,-189 257.5,-189 257.5,-216 257.5,-216 257.5,-222 251.5,-228 245.5,-228"/>
<text text-anchor="start" x="142" y="-211.2" font-family="Helvetica,sans-Serif" font-weight="bold" font-size="11.00" fill="#222222">Add to Cart</text>
<text text-anchor="start" x="110.5" y="-200.2" font-family="Helvetica,sans-Serif" font-size="11.00" fill="#222222">добавление в корзину</text>
<text text-anchor="start" x="130" y="-189.2" font-family="Helvetica,sans-Serif" font-size="11.00" fill="#222222">~5&#45;15% от visits</text>
</g>
<!-- PV&#45;&gt;AC -->
<g id="edge2" class="edge">
<title>PV&#45;&gt;AC</title>
<path fill="none" stroke="#555555" d="M131.09,-270.8C138.45,-260.02 147.79,-246.32 156.13,-234.1"/>
<polygon fill="#555555" stroke="#555555" points="158.21,-235.4 160.13,-228.24 154.16,-232.64 158.21,-235.4"/>
</g>
<!-- CO -->
<g id="node4" class="node">
<title>CO</title>
<path fill="#e1bee7" stroke="#999999" d="M305,-134C305,-134 193,-134 193,-134 187,-134 181,-128 181,-122 181,-122 181,-95 181,-95 181,-89 187,-83 193,-83 193,-83 305,-83 305,-83 311,-83 317,-89 317,-95 317,-95 317,-122 317,-122 317,-128 311,-134 305,-134"/>
<text text-anchor="start" x="195" y="-117.2" font-family="Helvetica,sans-Serif" font-weight="bold" font-size="11.00" fill="#222222">Checkout Started</text>
<text text-anchor="start" x="224.5" y="-106.2" font-family="Helvetica,sans-Serif" font-size="11.00" fill="#222222">initiation</text>
<text text-anchor="start" x="196" y="-95.2" font-family="Helvetica,sans-Serif" font-size="11.00" fill="#222222">~50&#45;70% from cart</text>
</g>
<!-- AC&#45;&gt;CO -->
<g id="edge3" class="edge">
<title>AC&#45;&gt;CO</title>
<path fill="none" stroke="#555555" d="M196.29,-176.85C205.17,-165.5 215.79,-151.93 225.16,-139.96"/>
<polygon fill="#555555" stroke="#555555" points="227.27,-141.24 229.65,-134.22 223.41,-138.22 227.27,-141.24"/>
</g>
<!-- PU -->
<g id="node5" class="node">
<title>PU</title>
<path fill="#c8e6c9" stroke="#999999" d="M367.5,-40C367.5,-40 242.5,-40 242.5,-40 236.5,-40 230.5,-34 230.5,-28 230.5,-28 230.5,-12 230.5,-12 230.5,-6 236.5,0 242.5,0 242.5,0 367.5,0 367.5,0 373.5,0 379.5,-6 379.5,-12 379.5,-12 379.5,-28 379.5,-28 379.5,-34 373.5,-40 367.5,-40"/>
<text text-anchor="start" x="245" y="-23.2" font-family="Helvetica,sans-Serif" font-weight="bold" font-size="11.00" fill="#222222">Purchase Complete</text>
<text text-anchor="start" x="244.5" y="-12.2" font-family="Helvetica,sans-Serif" font-size="11.00" fill="#222222">~50&#45;80% от checkout</text>
</g>
<!-- CO&#45;&gt;PU -->
<g id="edge4" class="edge">
<title>CO&#45;&gt;PU</title>
<path fill="none" stroke="#555555" d="M264.9,-82.94C272.32,-71.48 281.14,-57.85 288.62,-46.29"/>
<polygon fill="#555555" stroke="#555555" points="290.88,-47.32 292.62,-40.12 286.76,-44.66 290.88,-47.32"/>
</g>
<!-- CRO -->
<g id="node6" class="node">
<title>CRO</title>
<path fill="#ffe0b2" stroke="#999999" d="M319,-532C319,-532 167,-532 167,-532 161,-532 155,-526 155,-520 155,-520 155,-460 155,-460 155,-454 161,-448 167,-448 167,-448 319,-448 319,-448 325,-448 331,-454 331,-460 331,-460 331,-520 331,-520 331,-526 325,-532 319,-532"/>
<text text-anchor="start" x="230" y="-515.2" font-family="Helvetica,sans-Serif" font-weight="bold" font-size="11.00" fill="#222222">CRO</text>
<text text-anchor="start" x="197.5" y="-504.2" font-family="Helvetica,sans-Serif" font-size="11.00" fill="#222222">Conversion Rate</text>
<text text-anchor="start" x="207.5" y="-493.2" font-family="Helvetica,sans-Serif" font-size="11.00" fill="#222222">Optimization</text>
<text text-anchor="start" x="169" y="-482.2" font-family="Helvetica,sans-Serif" font-size="11.00" fill="#222222">A/B testing каждого шага</text>
<text text-anchor="start" x="187" y="-471.2" font-family="Helvetica,sans-Serif" font-size="11.00" fill="#222222">для максимизации</text>
<text text-anchor="start" x="212.5" y="-460.2" font-family="Helvetica,sans-Serif" font-size="11.00" fill="#222222">throughput</text>
</g>
<!-- CRO&#45;&gt;V -->
<g id="edge5" class="edge">
<title>CRO&#45;&gt;V</title>
<path fill="none" stroke="#555555" stroke-dasharray="5,2" d="M177.6,-447.98C156.88,-434.99 134.44,-420.92 115.44,-409"/>
<polygon fill="#555555" stroke="#555555" points="116.37,-406.69 109.14,-405.05 113.77,-410.84 116.37,-406.69"/>
</g>
<!-- CRO&#45;&gt;PV -->
<g id="edge6" class="edge">
<title>CRO&#45;&gt;PV</title>
<path fill="none" stroke="#555555" stroke-dasharray="5,2" d="M216.8,-447.7C191.83,-408.35 155.04,-350.37 134.11,-317.39"/>
<polygon fill="#555555" stroke="#555555" points="135.97,-315.74 130.15,-311.14 131.83,-318.37 135.97,-315.74"/>
</g>
<!-- CRO&#45;&gt;AC -->
<g id="edge7" class="edge">
<title>CRO&#45;&gt;AC</title>
<path fill="none" stroke="#555555" stroke-dasharray="5,2" d="M241.64,-447.87C239.19,-403.31 232.31,-330.6 213,-271 208.96,-258.54 202.69,-245.66 196.51,-234.53"/>
<polygon fill="#555555" stroke="#555555" points="198.49,-233.07 192.89,-228.2 194.24,-235.49 198.49,-233.07"/>
</g>
<!-- CRO&#45;&gt;CO -->
<g id="edge8" class="edge">
<title>CRO&#45;&gt;CO</title>
<path fill="none" stroke="#555555" stroke-dasharray="5,2" d="M253.5,-447.88C267.28,-387.97 287.96,-273.33 272,-177 269.99,-164.86 266.07,-151.98 262.03,-140.75"/>
<polygon fill="#555555" stroke="#555555" points="264.26,-139.71 259.52,-134 259.67,-141.42 264.26,-139.71"/>
</g>
<!-- CRO&#45;&gt;PU -->
<g id="edge9" class="edge">
<title>CRO&#45;&gt;PU</title>
<path fill="none" stroke="#555555" stroke-dasharray="5,2" d="M285.6,-447.88C319.4,-410.69 361,-352.6 361,-292 361,-292 361,-292 361,-201.5 361,-144.13 334.88,-80.93 318.32,-46.62"/>
<polygon fill="#555555" stroke="#555555" points="320.43,-45.36 315.14,-40.16 316.03,-47.52 320.43,-45.36"/>
</g>
</g>
</svg>
