<?xml version="1.0" encoding="UTF-8" standalone="no"?>
<!DOCTYPE svg PUBLIC "-//W3C//DTD SVG 1.1//EN"
 "http://www.w3.org/Graphics/SVG/1.1/DTD/svg11.dtd">
<!-- Generated by graphviz version 2.43.0 (0)
 -->
<!-- Title: 10&#45;08&#45;retail&#45;media&#45;network Pages: 1 -->
<svg width="851pt" height="139pt"
 viewBox="0.00 0.00 851.00 139.00" xmlns="http://www.w3.org/2000/svg" xmlns:xlink="http://www.w3.org/1999/xlink">
<g id="graph0" class="graph" transform="scale(1 1) rotate(0) translate(4 135)">
<title>10&#45;08&#45;retail&#45;media&#45;network</title>
<!-- R -->
<g id="node1" class="node">
<title>R</title>
<path fill="#ffe0b2" stroke="#999999" d="M156,-131C156,-131 17,-131 17,-131 11,-131 5,-125 5,-119 5,-119 5,-92 5,-92 5,-86 11,-80 17,-80 17,-80 156,-80 156,-80 162,-80 168,-86 168,-92 168,-92 168,-119 168,-119 168,-125 162,-131 156,-131"/>
<text text-anchor="start" x="56" y="-114.2" font-family="Helvetica,sans-Serif" font-weight="bold" font-size="11.00" fill="#222222">Ритейлер</text>
<text text-anchor="start" x="19" y="-103.2" font-family="Helvetica,sans-Serif" font-size="11.00" fill="#222222">аудитория + first&#45;party</text>
<text text-anchor="start" x="36.5" y="-92.2" font-family="Helvetica,sans-Serif" font-size="11.00" fill="#222222">purchase&#45;данные</text>
</g>
<!-- I -->
<g id="node2" class="node">
<title>I</title>
<path fill="#bbdefb" stroke="#999999" d="M404,-91C404,-91 228,-91 228,-91 222,-91 216,-85 216,-79 216,-79 216,-52 216,-52 216,-46 222,-40 228,-40 228,-40 404,-40 404,-40 410,-40 416,-46 416,-52 416,-52 416,-79 416,-79 416,-85 410,-91 404,-91"/>
<text text-anchor="start" x="282.5" y="-74.2" font-family="Helvetica,sans-Serif" font-weight="bold" font-size="11.00" fill="#222222">Инвентарь</text>
<text text-anchor="start" x="230" y="-63.2" font-family="Helvetica,sans-Serif" font-size="11.00" fill="#222222">sponsored products, баннеры,</text>
<text text-anchor="start" x="244" y="-52.2" font-family="Helvetica,sans-Serif" font-size="11.00" fill="#222222">видео, off&#45;site через DSP</text>
</g>
<!-- R&#45;&gt;I -->
<g id="edge1" class="edge">
<title>R&#45;&gt;I</title>
<path fill="none" stroke="#555555" d="M168.03,-91.34C181.2,-89.03 195.02,-86.6 208.7,-84.19"/>
<polygon fill="#555555" stroke="#555555" points="209.36,-86.56 215.83,-82.94 208.52,-81.74 209.36,-86.56"/>
</g>
<!-- L -->
<g id="node4" class="node">
<title>L</title>
<path fill="#e8f0fe" stroke="#999999" d="M632,-91C632,-91 471,-91 471,-91 465,-91 459,-85 459,-79 459,-79 459,-52 459,-52 459,-46 465,-40 471,-40 471,-40 632,-40 632,-40 638,-40 644,-46 644,-52 644,-52 644,-79 644,-79 644,-85 638,-91 632,-91"/>
<text text-anchor="start" x="492" y="-74.2" font-family="Helvetica,sans-Serif" font-weight="bold" font-size="11.00" fill="#222222">Замкнутый контур</text>
<text text-anchor="start" x="473" y="-63.2" font-family="Helvetica,sans-Serif" font-size="11.00" fill="#222222">показ → клик → покупка →</text>
<text text-anchor="start" x="486.5" y="-52.2" font-family="Helvetica,sans-Serif" font-size="11.00" fill="#222222">атрибуция к продаже</text>
</g>
<!-- I&#45;&gt;L -->
<g id="edge3" class="edge">
<title>I&#45;&gt;L</title>
<path fill="none" stroke="#555555" d="M416.03,-65.5C427.76,-65.5 439.74,-65.5 451.47,-65.5"/>
<polygon fill="#555555" stroke="#555555" points="451.74,-67.95 458.74,-65.5 451.74,-63.05 451.74,-67.95"/>
</g>
<!-- B -->
<g id="node3" class="node">
<title>B</title>
<path fill="#e1bee7" stroke="#999999" d="M161,-51C161,-51 12,-51 12,-51 6,-51 0,-45 0,-39 0,-39 0,-12 0,-12 0,-6 6,0 12,0 12,0 161,0 161,0 167,0 173,-6 173,-12 173,-12 173,-39 173,-39 173,-45 167,-51 161,-51"/>
<text text-anchor="start" x="14" y="-34.2" font-family="Helvetica,sans-Serif" font-weight="bold" font-size="11.00" fill="#222222">Бренд&#45;рекламодатель</text>
<text text-anchor="start" x="20" y="-23.2" font-family="Helvetica,sans-Serif" font-size="11.00" fill="#222222">покупает размещения</text>
<text text-anchor="start" x="50" y="-12.2" font-family="Helvetica,sans-Serif" font-size="11.00" fill="#222222">у ритейлера</text>
</g>
<!-- B&#45;&gt;I -->
<g id="edge2" class="edge">
<title>B&#45;&gt;I</title>
<path fill="none" stroke="#555555" d="M173.18,-40.57C184.77,-42.6 196.76,-44.71 208.65,-46.8"/>
<polygon fill="#555555" stroke="#555555" points="208.31,-49.23 215.63,-48.03 209.16,-44.4 208.31,-49.23"/>
</g>
<!-- P -->
<g id="node5" class="node">
<title>P</title>
<path fill="#c8e6c9" stroke="#999999" d="M831,-91C831,-91 699,-91 699,-91 693,-91 687,-85 687,-79 687,-79 687,-52 687,-52 687,-46 693,-40 699,-40 699,-40 831,-40 831,-40 837,-40 843,-46 843,-52 843,-52 843,-79 843,-79 843,-85 837,-91 831,-91"/>
<text text-anchor="start" x="701" y="-74.2" font-family="Helvetica,sans-Serif" font-weight="bold" font-size="11.00" fill="#222222">Прибыль ритейлера</text>
<text text-anchor="start" x="701.5" y="-63.2" font-family="Helvetica,sans-Serif" font-size="11.00" fill="#222222">рекламная маржа &gt;&gt;</text>
<text text-anchor="start" x="716.5" y="-52.2" font-family="Helvetica,sans-Serif" font-size="11.00" fill="#222222">торговой маржи</text>
</g>
<!-- L&#45;&gt;P -->
<g id="edge4" class="edge">
<title>L&#45;&gt;P</title>
<path fill="none" stroke="#555555" d="M644.04,-65.5C655.87,-65.5 667.95,-65.5 679.66,-65.5"/>
<polygon fill="#555555" stroke="#555555" points="679.9,-67.95 686.9,-65.5 679.9,-63.05 679.9,-67.95"/>
</g>
</g>
</svg>
