<?xml version="1.0" encoding="UTF-8" standalone="no"?>
<!DOCTYPE svg PUBLIC "-//W3C//DTD SVG 1.1//EN"
 "http://www.w3.org/Graphics/SVG/1.1/DTD/svg11.dtd">
<!-- Generated by graphviz version 2.43.0 (0)
 -->
<!-- Title: 10&#45;stp&#45;framework Pages: 1 -->
<svg width="756pt" height="103pt"
 viewBox="0.00 0.00 756.00 103.00" xmlns="http://www.w3.org/2000/svg" xmlns:xlink="http://www.w3.org/1999/xlink">
<g id="graph0" class="graph" transform="scale(1 1) rotate(0) translate(4 99)">
<title>10&#45;stp&#45;framework</title>
<!-- S -->
<g id="node1" class="node">
<title>S</title>
<path fill="#bbdefb" stroke="#999999" d="M119,-95C119,-95 12,-95 12,-95 6,-95 0,-89 0,-83 0,-83 0,-12 0,-12 0,-6 6,0 12,0 12,0 119,0 119,0 125,0 131,-6 131,-12 131,-12 131,-83 131,-83 131,-89 125,-95 119,-95"/>
<text text-anchor="start" x="22" y="-78.2" font-family="Helvetica,sans-Serif" font-weight="bold" font-size="11.00" fill="#222222">Segmentation</text>
<text text-anchor="start" x="14" y="-67.2" font-family="Helvetica,sans-Serif" font-size="11.00" fill="#222222">разделить рынок</text>
<text text-anchor="start" x="34.5" y="-56.2" font-family="Helvetica,sans-Serif" font-size="11.00" fill="#222222">на группы</text>
<text text-anchor="start" x="19" y="-45.2" font-family="Helvetica,sans-Serif" font-size="11.00" fill="#222222">— demographics</text>
<text text-anchor="start" x="15" y="-34.2" font-family="Helvetica,sans-Serif" font-size="11.00" fill="#222222">— psychographics</text>
<text text-anchor="start" x="29" y="-23.2" font-family="Helvetica,sans-Serif" font-size="11.00" fill="#222222">— behavioral</text>
<text text-anchor="start" x="18.5" y="-12.2" font-family="Helvetica,sans-Serif" font-size="11.00" fill="#222222">— mission&#45;based</text>
</g>
<!-- T -->
<g id="node2" class="node">
<title>T</title>
<path fill="#e1bee7" stroke="#999999" d="M318,-89.5C318,-89.5 186,-89.5 186,-89.5 180,-89.5 174,-83.5 174,-77.5 174,-77.5 174,-17.5 174,-17.5 174,-11.5 180,-5.5 186,-5.5 186,-5.5 318,-5.5 318,-5.5 324,-5.5 330,-11.5 330,-17.5 330,-17.5 330,-77.5 330,-77.5 330,-83.5 324,-89.5 318,-89.5"/>
<text text-anchor="start" x="223" y="-72.7" font-family="Helvetica,sans-Serif" font-weight="bold" font-size="11.00" fill="#222222">Targeting</text>
<text text-anchor="start" x="192" y="-61.7" font-family="Helvetica,sans-Serif" font-size="11.00" fill="#222222">выбрать сегмент(ы)</text>
<text text-anchor="start" x="196.5" y="-50.7" font-family="Helvetica,sans-Serif" font-size="11.00" fill="#222222">для концентрации</text>
<text text-anchor="start" x="204.5" y="-39.7" font-family="Helvetica,sans-Serif" font-size="11.00" fill="#222222">— attractiveness</text>
<text text-anchor="start" x="188" y="-28.7" font-family="Helvetica,sans-Serif" font-size="11.00" fill="#222222">— competitive position</text>
<text text-anchor="start" x="238.5" y="-17.7" font-family="Helvetica,sans-Serif" font-size="11.00" fill="#222222">— fit</text>
</g>
<!-- S&#45;&gt;T -->
<g id="edge1" class="edge">
<title>S&#45;&gt;T</title>
<path fill="none" stroke="#555555" d="M131.03,-47.5C142.58,-47.5 154.78,-47.5 166.78,-47.5"/>
<polygon fill="#555555" stroke="#555555" points="166.83,-49.95 173.83,-47.5 166.83,-45.05 166.83,-49.95"/>
</g>
<!-- P -->
<g id="node3" class="node">
<title>P</title>
<path fill="#c8e6c9" stroke="#999999" d="M513,-95C513,-95 385,-95 385,-95 379,-95 373,-89 373,-83 373,-83 373,-12 373,-12 373,-6 379,0 385,0 385,0 513,0 513,0 519,0 525,-6 525,-12 525,-12 525,-83 525,-83 525,-89 519,-95 513,-95"/>
<text text-anchor="start" x="414" y="-78.2" font-family="Helvetica,sans-Serif" font-weight="bold" font-size="11.00" fill="#222222">Positioning</text>
<text text-anchor="start" x="387" y="-67.2" font-family="Helvetica,sans-Serif" font-size="11.00" fill="#222222">как воспринимаемся</text>
<text text-anchor="start" x="387" y="-56.2" font-family="Helvetica,sans-Serif" font-size="11.00" fill="#222222">целевой аудиторией</text>
<text text-anchor="start" x="402.5" y="-45.2" font-family="Helvetica,sans-Serif" font-size="11.00" fill="#222222">vs конкурентов</text>
<text text-anchor="start" x="402.5" y="-34.2" font-family="Helvetica,sans-Serif" font-size="11.00" fill="#222222">— differentiation</text>
<text text-anchor="start" x="414" y="-23.2" font-family="Helvetica,sans-Serif" font-size="11.00" fill="#222222">— relevance</text>
<text text-anchor="start" x="414" y="-12.2" font-family="Helvetica,sans-Serif" font-size="11.00" fill="#222222">— credibility</text>
</g>
<!-- T&#45;&gt;P -->
<g id="edge2" class="edge">
<title>T&#45;&gt;P</title>
<path fill="none" stroke="#555555" d="M330.07,-47.5C341.71,-47.5 353.75,-47.5 365.5,-47.5"/>
<polygon fill="#555555" stroke="#555555" points="365.76,-49.95 372.76,-47.5 365.76,-45.05 365.76,-49.95"/>
</g>
<!-- M -->
<g id="node4" class="node">
<title>M</title>
<path fill="#ffe0b2" stroke="#999999" d="M736,-78.5C736,-78.5 580,-78.5 580,-78.5 574,-78.5 568,-72.5 568,-66.5 568,-66.5 568,-28.5 568,-28.5 568,-22.5 574,-16.5 580,-16.5 580,-16.5 736,-16.5 736,-16.5 742,-16.5 748,-22.5 748,-28.5 748,-28.5 748,-66.5 748,-66.5 748,-72.5 742,-78.5 736,-78.5"/>
<text text-anchor="start" x="599" y="-61.7" font-family="Helvetica,sans-Serif" font-weight="bold" font-size="11.00" fill="#222222">Marketing Mix (4P)</text>
<text text-anchor="start" x="593.5" y="-50.7" font-family="Helvetica,sans-Serif" font-size="11.00" fill="#222222">Product / Price / Place /</text>
<text text-anchor="start" x="582" y="-39.7" font-family="Helvetica,sans-Serif" font-size="11.00" fill="#222222">Promotion — выбор tactics</text>
<text text-anchor="start" x="594.5" y="-28.7" font-family="Helvetica,sans-Serif" font-size="11.00" fill="#222222">для каждого segment</text>
</g>
<!-- P&#45;&gt;M -->
<g id="edge3" class="edge">
<title>P&#45;&gt;M</title>
<path fill="none" stroke="#555555" d="M525.02,-47.5C536.63,-47.5 548.76,-47.5 560.75,-47.5"/>
<polygon fill="#555555" stroke="#555555" points="560.79,-49.95 567.79,-47.5 560.79,-45.05 560.79,-49.95"/>
</g>
</g>
</svg>
