<?xml version="1.0" encoding="UTF-8" standalone="no"?>
<!DOCTYPE svg PUBLIC "-//W3C//DTD SVG 1.1//EN"
 "http://www.w3.org/Graphics/SVG/1.1/DTD/svg11.dtd">
<!-- Generated by graphviz version 2.43.0 (0)
 -->
<!-- Title: 11&#45;hypothesis&#45;driven&#45;flow Pages: 1 -->
<svg width="1262pt" height="59pt"
 viewBox="0.00 0.00 1262.00 59.00" xmlns="http://www.w3.org/2000/svg" xmlns:xlink="http://www.w3.org/1999/xlink">
<g id="graph0" class="graph" transform="scale(1 1) rotate(0) translate(4 55)">
<title>11&#45;hypothesis&#45;driven&#45;flow</title>
<!-- P -->
<g id="node1" class="node">
<title>P</title>
<path fill="#ffe0b2" stroke="#999999" d="M163,-51C163,-51 12,-51 12,-51 6,-51 0,-45 0,-39 0,-39 0,-12 0,-12 0,-6 6,0 12,0 12,0 163,0 163,0 169,0 175,-6 175,-12 175,-12 175,-39 175,-39 175,-45 169,-51 163,-51"/>
<text text-anchor="start" x="54" y="-34.2" font-family="Helvetica,sans-Serif" font-weight="bold" font-size="11.00" fill="#222222">1. Problem</text>
<text text-anchor="start" x="21.5" y="-23.2" font-family="Helvetica,sans-Serif" font-size="11.00" fill="#222222">что за бизнес&#45;вопрос?</text>
<text text-anchor="start" x="14" y="-12.2" font-family="Helvetica,sans-Serif" font-size="11.00" fill="#222222">кому, к какому решению</text>
</g>
<!-- H -->
<g id="node2" class="node">
<title>H</title>
<path fill="#bbdefb" stroke="#999999" d="M325,-51C325,-51 230,-51 230,-51 224,-51 218,-45 218,-39 218,-39 218,-12 218,-12 218,-6 224,0 230,0 230,0 325,0 325,0 331,0 337,-6 337,-12 337,-12 337,-39 337,-39 337,-45 331,-51 325,-51"/>
<text text-anchor="start" x="235" y="-34.2" font-family="Helvetica,sans-Serif" font-weight="bold" font-size="11.00" fill="#222222">2. Hypothesis</text>
<text text-anchor="start" x="232" y="-23.2" font-family="Helvetica,sans-Serif" font-size="11.00" fill="#222222">«я думаю что X</text>
<text text-anchor="start" x="235.5" y="-12.2" font-family="Helvetica,sans-Serif" font-size="11.00" fill="#222222">потому что Y»</text>
</g>
<!-- P&#45;&gt;H -->
<g id="edge1" class="edge">
<title>P&#45;&gt;H</title>
<path fill="none" stroke="#555555" d="M175.07,-25.5C187.04,-25.5 199.17,-25.5 210.69,-25.5"/>
<polygon fill="#555555" stroke="#555555" points="210.77,-27.95 217.77,-25.5 210.77,-23.05 210.77,-27.95"/>
</g>
<!-- D -->
<g id="node3" class="node">
<title>D</title>
<path fill="#e1bee7" stroke="#999999" d="M571,-51C571,-51 392,-51 392,-51 386,-51 380,-45 380,-39 380,-39 380,-12 380,-12 380,-6 386,0 392,0 392,0 571,0 571,0 577,0 583,-6 583,-12 583,-12 583,-39 583,-39 583,-45 577,-51 571,-51"/>
<text text-anchor="start" x="434.5" y="-34.2" font-family="Helvetica,sans-Serif" font-weight="bold" font-size="11.00" fill="#222222">3. Data needed</text>
<text text-anchor="start" x="415.5" y="-23.2" font-family="Helvetica,sans-Serif" font-size="11.00" fill="#222222">какие именно данные</text>
<text text-anchor="start" x="394" y="-12.2" font-family="Helvetica,sans-Serif" font-size="11.00" fill="#222222">подтвердят или опровергнут</text>
</g>
<!-- H&#45;&gt;D -->
<g id="edge2" class="edge">
<title>H&#45;&gt;D</title>
<path fill="none" stroke="#555555" d="M337.2,-25.5C348.4,-25.5 360.44,-25.5 372.62,-25.5"/>
<polygon fill="#555555" stroke="#555555" points="372.8,-27.95 379.8,-25.5 372.8,-23.05 372.8,-27.95"/>
</g>
<!-- A -->
<g id="node4" class="node">
<title>A</title>
<path fill="#e8f0fe" stroke="#999999" d="M805,-51C805,-51 638,-51 638,-51 632,-51 626,-45 626,-39 626,-39 626,-12 626,-12 626,-6 632,0 638,0 638,0 805,0 805,0 811,0 817,-6 817,-12 817,-12 817,-39 817,-39 817,-45 811,-51 805,-51"/>
<text text-anchor="start" x="687.5" y="-34.2" font-family="Helvetica,sans-Serif" font-weight="bold" font-size="11.00" fill="#222222">4. Analysis</text>
<text text-anchor="start" x="642" y="-23.2" font-family="Helvetica,sans-Serif" font-size="11.00" fill="#222222">минимально необходимый</text>
<text text-anchor="start" x="640" y="-12.2" font-family="Helvetica,sans-Serif" font-size="11.00" fill="#222222">анализ для теста гипотезы</text>
</g>
<!-- D&#45;&gt;A -->
<g id="edge3" class="edge">
<title>D&#45;&gt;A</title>
<path fill="none" stroke="#555555" d="M583.09,-25.5C594.86,-25.5 606.87,-25.5 618.65,-25.5"/>
<polygon fill="#555555" stroke="#555555" points="618.96,-27.95 625.96,-25.5 618.96,-23.05 618.96,-27.95"/>
</g>
<!-- I -->
<g id="node5" class="node">
<title>I</title>
<path fill="#e8f0fe" stroke="#999999" d="M1015,-51C1015,-51 872,-51 872,-51 866,-51 860,-45 860,-39 860,-39 860,-12 860,-12 860,-6 866,0 872,0 872,0 1015,0 1015,0 1021,0 1027,-6 1027,-12 1027,-12 1027,-39 1027,-39 1027,-45 1021,-51 1015,-51"/>
<text text-anchor="start" x="914.5" y="-34.2" font-family="Helvetica,sans-Serif" font-weight="bold" font-size="11.00" fill="#222222">5. Insight</text>
<text text-anchor="start" x="887" y="-23.2" font-family="Helvetica,sans-Serif" font-size="11.00" fill="#222222">конкретный вывод</text>
<text text-anchor="start" x="874" y="-12.2" font-family="Helvetica,sans-Serif" font-size="11.00" fill="#222222">с уровнем уверенности</text>
</g>
<!-- A&#45;&gt;I -->
<g id="edge4" class="edge">
<title>A&#45;&gt;I</title>
<path fill="none" stroke="#555555" d="M817.08,-25.5C828.84,-25.5 840.85,-25.5 852.54,-25.5"/>
<polygon fill="#555555" stroke="#555555" points="852.78,-27.95 859.78,-25.5 852.78,-23.05 852.78,-27.95"/>
</g>
<!-- R -->
<g id="node6" class="node">
<title>R</title>
<path fill="#c8e6c9" stroke="#999999" d="M1242,-51C1242,-51 1082,-51 1082,-51 1076,-51 1070,-45 1070,-39 1070,-39 1070,-12 1070,-12 1070,-6 1076,0 1082,0 1082,0 1242,0 1242,0 1248,0 1254,-6 1254,-12 1254,-12 1254,-39 1254,-39 1254,-45 1248,-51 1242,-51"/>
<text text-anchor="start" x="1100.5" y="-34.2" font-family="Helvetica,sans-Serif" font-weight="bold" font-size="11.00" fill="#222222">6. Recommendation</text>
<text text-anchor="start" x="1084" y="-23.2" font-family="Helvetica,sans-Serif" font-size="11.00" fill="#222222">решение и план действий</text>
<text text-anchor="start" x="1108" y="-12.2" font-family="Helvetica,sans-Serif" font-size="11.00" fill="#222222">для руководителя</text>
</g>
<!-- I&#45;&gt;R -->
<g id="edge5" class="edge">
<title>I&#45;&gt;R</title>
<path fill="none" stroke="#555555" d="M1027.28,-25.5C1038.84,-25.5 1050.82,-25.5 1062.64,-25.5"/>
<polygon fill="#555555" stroke="#555555" points="1062.97,-27.95 1069.97,-25.5 1062.97,-23.05 1062.97,-27.95"/>
</g>
</g>
</svg>
