<?xml version="1.0" encoding="UTF-8" standalone="no"?>
<!DOCTYPE svg PUBLIC "-//W3C//DTD SVG 1.1//EN"
 "http://www.w3.org/Graphics/SVG/1.1/DTD/svg11.dtd">
<!-- Generated by graphviz version 2.43.0 (0)
 -->
<!-- Title: 12&#45;erp&#45;modules&#45;1c Pages: 1 -->
<svg width="1347pt" height="164pt"
 viewBox="0.00 0.00 1346.50 164.00" xmlns="http://www.w3.org/2000/svg" xmlns:xlink="http://www.w3.org/1999/xlink">
<g id="graph0" class="graph" transform="scale(1 1) rotate(0) translate(4 160)">
<title>12&#45;erp&#45;modules&#45;1c</title>
<!-- E -->
<g id="node1" class="node">
<title>E</title>
<path fill="#ffe0b2" stroke="#999999" d="M790.5,-156C790.5,-156 621.5,-156 621.5,-156 615.5,-156 609.5,-150 609.5,-144 609.5,-144 609.5,-117 609.5,-117 609.5,-111 615.5,-105 621.5,-105 621.5,-105 790.5,-105 790.5,-105 796.5,-105 802.5,-111 802.5,-117 802.5,-117 802.5,-144 802.5,-144 802.5,-150 796.5,-156 790.5,-156"/>
<text text-anchor="start" x="681.5" y="-139.2" font-family="Helvetica,sans-Serif" font-weight="bold" font-size="11.00" fill="#222222">1С: ERP</text>
<text text-anchor="start" x="623.5" y="-128.2" font-family="Helvetica,sans-Serif" font-size="11.00" fill="#222222">основные функциональные</text>
<text text-anchor="start" x="688.5" y="-117.2" font-family="Helvetica,sans-Serif" font-size="11.00" fill="#222222">блоки</text>
</g>
<!-- F -->
<g id="node2" class="node">
<title>F</title>
<path fill="#e8f0fe" stroke="#999999" d="M164,-62C164,-62 12,-62 12,-62 6,-62 0,-56 0,-50 0,-50 0,-12 0,-12 0,-6 6,0 12,0 12,0 164,0 164,0 170,0 176,-6 176,-12 176,-12 176,-50 176,-50 176,-56 170,-62 164,-62"/>
<text text-anchor="start" x="59" y="-45.2" font-family="Helvetica,sans-Serif" font-weight="bold" font-size="11.00" fill="#222222">Финансы</text>
<text text-anchor="start" x="26.5" y="-34.2" font-family="Helvetica,sans-Serif" font-size="11.00" fill="#222222">бухучёт, налоговый,</text>
<text text-anchor="start" x="14" y="-23.2" font-family="Helvetica,sans-Serif" font-size="11.00" fill="#222222">международная (МСФО),</text>
<text text-anchor="start" x="39.5" y="-12.2" font-family="Helvetica,sans-Serif" font-size="11.00" fill="#222222">управленческий</text>
</g>
<!-- E&#45;&gt;F -->
<g id="edge1" class="edge">
<title>E&#45;&gt;F</title>
<path fill="none" stroke="#555555" d="M609.19,-121.38C504.92,-111.58 334.53,-92.51 190,-62 187.74,-61.52 185.46,-61.02 183.17,-60.5"/>
<polygon fill="#555555" stroke="#555555" points="183.62,-58.09 176.24,-58.87 182.5,-62.86 183.62,-58.09"/>
</g>
<!-- P -->
<g id="node3" class="node">
<title>P</title>
<path fill="#e8f0fe" stroke="#999999" d="M387,-62C387,-62 217,-62 217,-62 211,-62 205,-56 205,-50 205,-50 205,-12 205,-12 205,-6 211,0 217,0 217,0 387,0 387,0 393,0 399,-6 399,-12 399,-12 399,-50 399,-50 399,-56 393,-62 387,-62"/>
<text text-anchor="start" x="275.5" y="-45.2" font-family="Helvetica,sans-Serif" font-weight="bold" font-size="11.00" fill="#222222">Закупки</text>
<text text-anchor="start" x="219" y="-34.2" font-family="Helvetica,sans-Serif" font-size="11.00" fill="#222222">управление поставщиками,</text>
<text text-anchor="start" x="244" y="-23.2" font-family="Helvetica,sans-Serif" font-size="11.00" fill="#222222">контракты, заявки,</text>
<text text-anchor="start" x="288" y="-12.2" font-family="Helvetica,sans-Serif" font-size="11.00" fill="#222222">ОПФ</text>
</g>
<!-- E&#45;&gt;P -->
<g id="edge2" class="edge">
<title>E&#45;&gt;P</title>
<path fill="none" stroke="#555555" d="M609.45,-108.21C552.21,-95.36 478.32,-78.35 413,-62 410.72,-61.43 408.42,-60.85 406.11,-60.26"/>
<polygon fill="#555555" stroke="#555555" points="406.49,-57.83 399.1,-58.47 405.28,-62.58 406.49,-57.83"/>
</g>
<!-- S -->
<g id="node4" class="node">
<title>S</title>
<path fill="#e8f0fe" stroke="#999999" d="M578,-62C578,-62 440,-62 440,-62 434,-62 428,-56 428,-50 428,-50 428,-12 428,-12 428,-6 434,0 440,0 440,0 578,0 578,0 584,0 590,-6 590,-12 590,-12 590,-50 590,-50 590,-56 584,-62 578,-62"/>
<text text-anchor="start" x="459.5" y="-45.2" font-family="Helvetica,sans-Serif" font-weight="bold" font-size="11.00" fill="#222222">Продажи / CRM</text>
<text text-anchor="start" x="442" y="-34.2" font-family="Helvetica,sans-Serif" font-size="11.00" fill="#222222">управление сделками,</text>
<text text-anchor="start" x="461.5" y="-23.2" font-family="Helvetica,sans-Serif" font-size="11.00" fill="#222222">взаиморасчёты,</text>
<text text-anchor="start" x="457" y="-12.2" font-family="Helvetica,sans-Serif" font-size="11.00" fill="#222222">ценообразование</text>
</g>
<!-- E&#45;&gt;S -->
<g id="edge3" class="edge">
<title>E&#45;&gt;S</title>
<path fill="none" stroke="#555555" d="M656.29,-104.9C632.12,-92.94 602.71,-78.38 576.54,-65.43"/>
<polygon fill="#555555" stroke="#555555" points="577.33,-63.08 569.97,-62.17 575.15,-67.47 577.33,-63.08"/>
</g>
<!-- I -->
<g id="node5" class="node">
<title>I</title>
<path fill="#e8f0fe" stroke="#999999" d="M780.5,-62C780.5,-62 631.5,-62 631.5,-62 625.5,-62 619.5,-56 619.5,-50 619.5,-50 619.5,-12 619.5,-12 619.5,-6 625.5,0 631.5,0 631.5,0 780.5,0 780.5,0 786.5,0 792.5,-6 792.5,-12 792.5,-12 792.5,-50 792.5,-50 792.5,-56 786.5,-62 780.5,-62"/>
<text text-anchor="start" x="655.5" y="-45.2" font-family="Helvetica,sans-Serif" font-weight="bold" font-size="11.00" fill="#222222">Запасы и склад</text>
<text text-anchor="start" x="661.5" y="-34.2" font-family="Helvetica,sans-Serif" font-size="11.00" fill="#222222">партии, серии,</text>
<text text-anchor="start" x="633.5" y="-23.2" font-family="Helvetica,sans-Serif" font-size="11.00" fill="#222222">FIFO/средневзвешенная,</text>
<text text-anchor="start" x="656" y="-12.2" font-family="Helvetica,sans-Serif" font-size="11.00" fill="#222222">инвентаризации</text>
</g>
<!-- E&#45;&gt;I -->
<g id="edge4" class="edge">
<title>E&#45;&gt;I</title>
<path fill="none" stroke="#555555" d="M706,-104.9C706,-94.15 706,-81.31 706,-69.43"/>
<polygon fill="#555555" stroke="#555555" points="708.45,-69.17 706,-62.17 703.55,-69.17 708.45,-69.17"/>
</g>
<!-- M -->
<g id="node6" class="node">
<title>M</title>
<path fill="#e8f0fe" stroke="#999999" d="M938.5,-56.5C938.5,-56.5 833.5,-56.5 833.5,-56.5 827.5,-56.5 821.5,-50.5 821.5,-44.5 821.5,-44.5 821.5,-17.5 821.5,-17.5 821.5,-11.5 827.5,-5.5 833.5,-5.5 833.5,-5.5 938.5,-5.5 938.5,-5.5 944.5,-5.5 950.5,-11.5 950.5,-17.5 950.5,-17.5 950.5,-44.5 950.5,-44.5 950.5,-50.5 944.5,-56.5 938.5,-56.5"/>
<text text-anchor="start" x="841" y="-39.7" font-family="Helvetica,sans-Serif" font-weight="bold" font-size="11.00" fill="#222222">Производство</text>
<text text-anchor="start" x="841" y="-28.7" font-family="Helvetica,sans-Serif" font-size="11.00" fill="#222222">MRP, MES, MPS,</text>
<text text-anchor="start" x="835.5" y="-17.7" font-family="Helvetica,sans-Serif" font-size="11.00" fill="#222222">spec &amp; calculation</text>
</g>
<!-- E&#45;&gt;M -->
<g id="edge5" class="edge">
<title>E&#45;&gt;M</title>
<path fill="none" stroke="#555555" d="M751.42,-104.9C776.68,-91.21 808.21,-74.13 834.4,-59.95"/>
<polygon fill="#555555" stroke="#555555" points="835.6,-62.08 840.59,-56.6 833.27,-57.78 835.6,-62.08"/>
</g>
<!-- H -->
<g id="node7" class="node">
<title>H</title>
<path fill="#e8f0fe" stroke="#999999" d="M1138,-56.5C1138,-56.5 992,-56.5 992,-56.5 986,-56.5 980,-50.5 980,-44.5 980,-44.5 980,-17.5 980,-17.5 980,-11.5 986,-5.5 992,-5.5 992,-5.5 1138,-5.5 1138,-5.5 1144,-5.5 1150,-11.5 1150,-17.5 1150,-17.5 1150,-44.5 1150,-44.5 1150,-50.5 1144,-56.5 1138,-56.5"/>
<text text-anchor="start" x="1029" y="-39.7" font-family="Helvetica,sans-Serif" font-weight="bold" font-size="11.00" fill="#222222">HR / Кадры</text>
<text text-anchor="start" x="1001" y="-28.7" font-family="Helvetica,sans-Serif" font-size="11.00" fill="#222222">штатное расписание,</text>
<text text-anchor="start" x="994" y="-17.7" font-family="Helvetica,sans-Serif" font-size="11.00" fill="#222222">з/п, налоги, отчётность</text>
</g>
<!-- E&#45;&gt;H -->
<g id="edge6" class="edge">
<title>E&#45;&gt;H</title>
<path fill="none" stroke="#555555" d="M802.78,-105.17C851.54,-92.69 911.53,-76.98 965,-62 968.97,-60.89 973.02,-59.74 977.11,-58.56"/>
<polygon fill="#555555" stroke="#555555" points="977.98,-60.86 984.03,-56.57 976.62,-56.15 977.98,-60.86"/>
</g>
<!-- A -->
<g id="node8" class="node">
<title>A</title>
<path fill="#e8f0fe" stroke="#999999" d="M1326.5,-56.5C1326.5,-56.5 1191.5,-56.5 1191.5,-56.5 1185.5,-56.5 1179.5,-50.5 1179.5,-44.5 1179.5,-44.5 1179.5,-17.5 1179.5,-17.5 1179.5,-11.5 1185.5,-5.5 1191.5,-5.5 1191.5,-5.5 1326.5,-5.5 1326.5,-5.5 1332.5,-5.5 1338.5,-11.5 1338.5,-17.5 1338.5,-17.5 1338.5,-44.5 1338.5,-44.5 1338.5,-50.5 1332.5,-56.5 1326.5,-56.5"/>
<text text-anchor="start" x="1224.5" y="-39.7" font-family="Helvetica,sans-Serif" font-weight="bold" font-size="11.00" fill="#222222">Аналитика</text>
<text text-anchor="start" x="1201.5" y="-28.7" font-family="Helvetica,sans-Serif" font-size="11.00" fill="#222222">отчёты, дашборды,</text>
<text text-anchor="start" x="1193.5" y="-17.7" font-family="Helvetica,sans-Serif" font-size="11.00" fill="#222222">интеграция с Power BI</text>
</g>
<!-- E&#45;&gt;A -->
<g id="edge7" class="edge">
<title>E&#45;&gt;A</title>
<path fill="none" stroke="#555555" d="M802.68,-119.92C896.16,-109.56 1041.41,-90.61 1165,-62 1169.65,-60.92 1174.41,-59.72 1179.19,-58.44"/>
<polygon fill="#555555" stroke="#555555" points="1180.1,-60.73 1186.2,-56.51 1178.8,-56.01 1180.1,-60.73"/>
</g>
</g>
</svg>
