<?xml version="1.0" encoding="UTF-8" standalone="no"?>
<!DOCTYPE svg PUBLIC "-//W3C//DTD SVG 1.1//EN"
 "http://www.w3.org/Graphics/SVG/1.1/DTD/svg11.dtd">
<!-- Generated by graphviz version 2.43.0 (0)
 -->
<!-- Title: 15&#45;littles&#45;law&#45;montecarlo Pages: 1 -->
<svg width="405pt" height="385pt"
 viewBox="0.00 0.00 404.50 385.00" xmlns="http://www.w3.org/2000/svg" xmlns:xlink="http://www.w3.org/1999/xlink">
<g id="graph0" class="graph" transform="scale(1 1) rotate(0) translate(4 381)">
<title>15&#45;littles&#45;law&#45;montecarlo</title>
<!-- L -->
<g id="node1" class="node">
<title>L</title>
<path fill="#ffe0b2" stroke="#999999" d="M189,-377C189,-377 12,-377 12,-377 6,-377 0,-371 0,-365 0,-365 0,-327 0,-327 0,-321 6,-315 12,-315 12,-315 189,-315 189,-315 195,-315 201,-321 201,-327 201,-327 201,-365 201,-365 201,-371 195,-377 189,-377"/>
<text text-anchor="start" x="56.5" y="-360.2" font-family="Helvetica,sans-Serif" font-weight="bold" font-size="11.00" fill="#222222">Закон Литтла</text>
<text text-anchor="start" x="14" y="-349.2" font-family="Helvetica,sans-Serif" font-size="11.00" fill="#222222">Lead Time = WIP / Throughput.</text>
<text text-anchor="start" x="25.5" y="-338.2" font-family="Helvetica,sans-Serif" font-size="11.00" fill="#222222">Меньше незавершёнки →</text>
<text text-anchor="start" x="23.5" y="-327.2" font-family="Helvetica,sans-Serif" font-size="11.00" fill="#222222">быстрее проходит работа</text>
</g>
<!-- WIP -->
<g id="node2" class="node">
<title>WIP</title>
<path fill="#bbdefb" stroke="#999999" d="M163.5,-272C163.5,-272 37.5,-272 37.5,-272 31.5,-272 25.5,-266 25.5,-260 25.5,-260 25.5,-222 25.5,-222 25.5,-216 31.5,-210 37.5,-210 37.5,-210 163.5,-210 163.5,-210 169.5,-210 175.5,-216 175.5,-222 175.5,-222 175.5,-260 175.5,-260 175.5,-266 169.5,-272 163.5,-272"/>
<text text-anchor="start" x="45" y="-255.2" font-family="Helvetica,sans-Serif" font-weight="bold" font-size="11.00" fill="#222222">Ограничение WIP</text>
<text text-anchor="start" x="44" y="-244.2" font-family="Helvetica,sans-Serif" font-size="11.00" fill="#222222">рычаг управления:</text>
<text text-anchor="start" x="48" y="-233.2" font-family="Helvetica,sans-Serif" font-size="11.00" fill="#222222">уменьшить WIP →</text>
<text text-anchor="start" x="39.5" y="-222.2" font-family="Helvetica,sans-Serif" font-size="11.00" fill="#222222">сократить Lead Time</text>
</g>
<!-- L&#45;&gt;WIP -->
<g id="edge1" class="edge">
<title>L&#45;&gt;WIP</title>
<path fill="none" stroke="#555555" d="M100.5,-314.93C100.5,-303.82 100.5,-291.08 100.5,-279.4"/>
<polygon fill="#555555" stroke="#555555" points="102.95,-279.28 100.5,-272.28 98.05,-279.28 102.95,-279.28"/>
</g>
<!-- MC -->
<g id="node4" class="node">
<title>MC</title>
<path fill="#e1bee7" stroke="#999999" d="M283.5,-167C283.5,-167 117.5,-167 117.5,-167 111.5,-167 105.5,-161 105.5,-155 105.5,-155 105.5,-117 105.5,-117 105.5,-111 111.5,-105 117.5,-105 117.5,-105 283.5,-105 283.5,-105 289.5,-105 295.5,-111 295.5,-117 295.5,-117 295.5,-155 295.5,-155 295.5,-161 289.5,-167 283.5,-167"/>
<text text-anchor="start" x="135.5" y="-150.2" font-family="Helvetica,sans-Serif" font-weight="bold" font-size="11.00" fill="#222222">Monte&#45;Carlo прогноз</text>
<text text-anchor="start" x="144.5" y="-139.2" font-family="Helvetica,sans-Serif" font-size="11.00" fill="#222222">тысячи симуляций</text>
<text text-anchor="start" x="119.5" y="-128.2" font-family="Helvetica,sans-Serif" font-size="11.00" fill="#222222">на исторических данных →</text>
<text text-anchor="start" x="143" y="-117.2" font-family="Helvetica,sans-Serif" font-size="11.00" fill="#222222">распределение дат</text>
</g>
<!-- WIP&#45;&gt;MC -->
<g id="edge3" class="edge">
<title>WIP&#45;&gt;MC</title>
<path fill="none" stroke="#555555" d="M129.69,-209.93C141.09,-198.19 154.25,-184.64 166.11,-172.43"/>
<polygon fill="#555555" stroke="#555555" points="167.98,-174.01 171.1,-167.28 164.46,-170.6 167.98,-174.01"/>
</g>
<!-- H -->
<g id="node3" class="node">
<title>H</title>
<path fill="#e8f0fe" stroke="#999999" d="M384.5,-272C384.5,-272 216.5,-272 216.5,-272 210.5,-272 204.5,-266 204.5,-260 204.5,-260 204.5,-222 204.5,-222 204.5,-216 210.5,-210 216.5,-210 216.5,-210 384.5,-210 384.5,-210 390.5,-210 396.5,-216 396.5,-222 396.5,-222 396.5,-260 396.5,-260 396.5,-266 390.5,-272 384.5,-272"/>
<text text-anchor="start" x="218.5" y="-255.2" font-family="Helvetica,sans-Serif" font-weight="bold" font-size="11.00" fill="#222222">Исторический Throughput</text>
<text text-anchor="start" x="244" y="-244.2" font-family="Helvetica,sans-Serif" font-size="11.00" fill="#222222">сколько элементов</text>
<text text-anchor="start" x="233.5" y="-233.2" font-family="Helvetica,sans-Serif" font-size="11.00" fill="#222222">закрывается в неделю</text>
<text text-anchor="start" x="234" y="-222.2" font-family="Helvetica,sans-Serif" font-size="11.00" fill="#222222">(данные, а не оценки)</text>
</g>
<!-- H&#45;&gt;MC -->
<g id="edge2" class="edge">
<title>H&#45;&gt;MC</title>
<path fill="none" stroke="#555555" d="M271.31,-209.93C259.91,-198.19 246.75,-184.64 234.89,-172.43"/>
<polygon fill="#555555" stroke="#555555" points="236.54,-170.6 229.9,-167.28 233.02,-174.01 236.54,-170.6"/>
</g>
<!-- F -->
<g id="node5" class="node">
<title>F</title>
<path fill="#c8e6c9" stroke="#999999" d="M276.5,-62C276.5,-62 124.5,-62 124.5,-62 118.5,-62 112.5,-56 112.5,-50 112.5,-50 112.5,-12 112.5,-12 112.5,-6 118.5,0 124.5,0 124.5,0 276.5,0 276.5,0 282.5,0 288.5,-6 288.5,-12 288.5,-12 288.5,-50 288.5,-50 288.5,-56 282.5,-62 276.5,-62"/>
<text text-anchor="start" x="126.5" y="-45.2" font-family="Helvetica,sans-Serif" font-weight="bold" font-size="11.00" fill="#222222">Прогноз в процентилях</text>
<text text-anchor="start" x="150.5" y="-34.2" font-family="Helvetica,sans-Serif" font-size="11.00" fill="#222222">«готово к дате X</text>
<text text-anchor="start" x="136.5" y="-23.2" font-family="Helvetica,sans-Serif" font-size="11.00" fill="#222222">с вероятностью 85%»</text>
<text text-anchor="start" x="136.5" y="-12.2" font-family="Helvetica,sans-Serif" font-size="11.00" fill="#222222">вместо одной оценки</text>
</g>
<!-- MC&#45;&gt;F -->
<g id="edge4" class="edge">
<title>MC&#45;&gt;F</title>
<path fill="none" stroke="#555555" d="M200.5,-104.93C200.5,-93.82 200.5,-81.08 200.5,-69.4"/>
<polygon fill="#555555" stroke="#555555" points="202.95,-69.28 200.5,-62.28 198.05,-69.28 202.95,-69.28"/>
</g>
</g>
</svg>
