<?xml version="1.0" encoding="UTF-8" standalone="no"?>
<!DOCTYPE svg PUBLIC "-//W3C//DTD SVG 1.1//EN"
 "http://www.w3.org/Graphics/SVG/1.1/DTD/svg11.dtd">
<!-- Generated by graphviz version 2.43.0 (0)
 -->
<!-- Title: 16&#45;eisenhower&#45;matrix Pages: 1 -->
<svg width="832pt" height="186pt"
 viewBox="0.00 0.00 832.00 186.00" xmlns="http://www.w3.org/2000/svg" xmlns:xlink="http://www.w3.org/1999/xlink">
<g id="graph0" class="graph" transform="scale(1 1) rotate(0) translate(4 182)">
<title>16&#45;eisenhower&#45;matrix</title>
<!-- M -->
<g id="node1" class="node">
<title>M</title>
<path fill="#ffe0b2" stroke="#999999" d="M485.5,-178C485.5,-178 308.5,-178 308.5,-178 302.5,-178 296.5,-172 296.5,-166 296.5,-166 296.5,-117 296.5,-117 296.5,-111 302.5,-105 308.5,-105 308.5,-105 485.5,-105 485.5,-105 491.5,-105 497.5,-111 497.5,-117 497.5,-117 497.5,-166 497.5,-166 497.5,-172 491.5,-178 485.5,-178"/>
<text text-anchor="start" x="326" y="-161.2" font-family="Helvetica,sans-Serif" font-weight="bold" font-size="11.00" fill="#222222">Матрица Эйзенхауэра</text>
<text text-anchor="start" x="330.5" y="-150.2" font-family="Helvetica,sans-Serif" font-size="11.00" fill="#222222">«У меня два типа дел:</text>
<text text-anchor="start" x="341.5" y="-139.2" font-family="Helvetica,sans-Serif" font-size="11.00" fill="#222222">срочное и важное.</text>
<text text-anchor="start" x="311" y="-128.2" font-family="Helvetica,sans-Serif" font-size="11.00" fill="#222222">Срочное никогда не важное,</text>
<text text-anchor="start" x="310.5" y="-117.2" font-family="Helvetica,sans-Serif" font-size="11.00" fill="#222222">важное никогда не срочное»</text>
</g>
<!-- Q1 -->
<g id="node2" class="node">
<title>Q1</title>
<path fill="#ffcdd2" stroke="#999999" d="M158,-62C158,-62 12,-62 12,-62 6,-62 0,-56 0,-50 0,-50 0,-12 0,-12 0,-6 6,0 12,0 12,0 158,0 158,0 164,0 170,-6 170,-12 170,-12 170,-50 170,-50 170,-56 164,-62 158,-62"/>
<text text-anchor="start" x="14" y="-45.2" font-family="Helvetica,sans-Serif" font-weight="bold" font-size="11.00" fill="#222222">Q1: Срочное и важное</text>
<text text-anchor="start" x="24.5" y="-34.2" font-family="Helvetica,sans-Serif" font-size="11.00" fill="#222222">кризисы, дедлайны,</text>
<text text-anchor="start" x="61.5" y="-23.2" font-family="Helvetica,sans-Serif" font-size="11.00" fill="#222222">пожары</text>
<text text-anchor="start" x="35.5" y="-12.2" font-family="Helvetica,sans-Serif" font-size="11.00" fill="#222222">→ Делать сейчас</text>
</g>
<!-- M&#45;&gt;Q1 -->
<g id="edge1" class="edge">
<title>M&#45;&gt;Q1</title>
<path fill="none" stroke="#555555" d="M296.13,-105.42C257.84,-92.1 214.45,-77.02 177.01,-64"/>
<polygon fill="#555555" stroke="#555555" points="177.51,-61.58 170.09,-61.59 175.9,-66.21 177.51,-61.58"/>
</g>
<!-- Q2 -->
<g id="node3" class="node">
<title>Q2</title>
<path fill="#c8e6c9" stroke="#999999" d="M370.5,-62C370.5,-62 211.5,-62 211.5,-62 205.5,-62 199.5,-56 199.5,-50 199.5,-50 199.5,-12 199.5,-12 199.5,-6 205.5,0 211.5,0 211.5,0 370.5,0 370.5,0 376.5,0 382.5,-6 382.5,-12 382.5,-12 382.5,-50 382.5,-50 382.5,-56 376.5,-62 370.5,-62"/>
<text text-anchor="start" x="213.5" y="-45.2" font-family="Helvetica,sans-Serif" font-weight="bold" font-size="11.00" fill="#222222">Q2: Важное, НЕ срочное</text>
<text text-anchor="start" x="227.5" y="-34.2" font-family="Helvetica,sans-Serif" font-size="11.00" fill="#222222">стратегия, обучение,</text>
<text text-anchor="start" x="257.5" y="-23.2" font-family="Helvetica,sans-Serif" font-size="11.00" fill="#222222">отношения</text>
<text text-anchor="start" x="245.5" y="-12.2" font-family="Helvetica,sans-Serif" font-size="11.00" fill="#222222">→ Планировать</text>
</g>
<!-- M&#45;&gt;Q2 -->
<g id="edge2" class="edge">
<title>M&#45;&gt;Q2</title>
<path fill="none" stroke="#555555" d="M362.29,-104.97C350.46,-92.86 337.24,-79.33 325.42,-67.24"/>
<polygon fill="#555555" stroke="#555555" points="327.1,-65.45 320.46,-62.15 323.6,-68.87 327.1,-65.45"/>
</g>
<!-- Q3 -->
<g id="node4" class="node">
<title>Q3</title>
<path fill="#fff9c4" stroke="#999999" d="M582.5,-62C582.5,-62 423.5,-62 423.5,-62 417.5,-62 411.5,-56 411.5,-50 411.5,-50 411.5,-12 411.5,-12 411.5,-6 417.5,0 423.5,0 423.5,0 582.5,0 582.5,0 588.5,0 594.5,-6 594.5,-12 594.5,-12 594.5,-50 594.5,-50 594.5,-56 588.5,-62 582.5,-62"/>
<text text-anchor="start" x="425.5" y="-45.2" font-family="Helvetica,sans-Serif" font-weight="bold" font-size="11.00" fill="#222222">Q3: Срочное, НЕ важное</text>
<text text-anchor="start" x="444" y="-34.2" font-family="Helvetica,sans-Serif" font-size="11.00" fill="#222222">чужие приоритеты,</text>
<text text-anchor="start" x="466.5" y="-23.2" font-family="Helvetica,sans-Serif" font-size="11.00" fill="#222222">прерывания</text>
<text text-anchor="start" x="455" y="-12.2" font-family="Helvetica,sans-Serif" font-size="11.00" fill="#222222">→ Делегировать</text>
</g>
<!-- M&#45;&gt;Q3 -->
<g id="edge3" class="edge">
<title>M&#45;&gt;Q3</title>
<path fill="none" stroke="#555555" d="M431.71,-104.97C443.54,-92.86 456.76,-79.33 468.58,-67.24"/>
<polygon fill="#555555" stroke="#555555" points="470.4,-68.87 473.54,-62.15 466.9,-65.45 470.4,-68.87"/>
</g>
<!-- Q4 -->
<g id="node5" class="node">
<title>Q4</title>
<path fill="#e1bee7" stroke="#999999" d="M812,-62C812,-62 636,-62 636,-62 630,-62 624,-56 624,-50 624,-50 624,-12 624,-12 624,-6 630,0 636,0 636,0 812,0 812,0 818,0 824,-6 824,-12 824,-12 824,-50 824,-50 824,-56 818,-62 812,-62"/>
<text text-anchor="start" x="638" y="-45.2" font-family="Helvetica,sans-Serif" font-weight="bold" font-size="11.00" fill="#222222">Q4: Не срочное, не важное</text>
<text text-anchor="start" x="684.5" y="-34.2" font-family="Helvetica,sans-Serif" font-size="11.00" fill="#222222">развлечения,</text>
<text text-anchor="start" x="702.5" y="-23.2" font-family="Helvetica,sans-Serif" font-size="11.00" fill="#222222">рутина</text>
<text text-anchor="start" x="693.5" y="-12.2" font-family="Helvetica,sans-Serif" font-size="11.00" fill="#222222">→ Убирать</text>
</g>
<!-- M&#45;&gt;Q4 -->
<g id="edge4" class="edge">
<title>M&#45;&gt;Q4</title>
<path fill="none" stroke="#555555" d="M497.78,-107.06C538.84,-93.44 586.13,-77.75 626.81,-64.25"/>
<polygon fill="#555555" stroke="#555555" points="627.67,-66.54 633.54,-62.01 626.13,-61.89 627.67,-66.54"/>
</g>
</g>
</svg>
