<?xml version="1.0" encoding="UTF-8" standalone="no"?>
<!DOCTYPE svg PUBLIC "-//W3C//DTD SVG 1.1//EN"
 "http://www.w3.org/Graphics/SVG/1.1/DTD/svg11.dtd">
<!-- Generated by graphviz version 2.43.0 (0)
 -->
<!-- Title: 18&#45;star&#45;method Pages: 1 -->
<svg width="186pt" height="479pt"
 viewBox="0.00 0.00 186.00 479.00" xmlns="http://www.w3.org/2000/svg" xmlns:xlink="http://www.w3.org/1999/xlink">
<g id="graph0" class="graph" transform="scale(1 1) rotate(0) translate(4 475)">
<title>18&#45;star&#45;method</title>
<!-- M -->
<g id="node1" class="node">
<title>M</title>
<path fill="#ffe0b2" stroke="#999999" d="M166,-471C166,-471 12,-471 12,-471 6,-471 0,-465 0,-459 0,-459 0,-432 0,-432 0,-426 6,-420 12,-420 12,-420 166,-420 166,-420 172,-420 178,-426 178,-432 178,-432 178,-459 178,-459 178,-465 172,-471 166,-471"/>
<text text-anchor="start" x="18.5" y="-454.2" font-family="Helvetica,sans-Serif" font-weight="bold" font-size="11.00" fill="#222222">STAR&#45;метод интервью</text>
<text text-anchor="start" x="14" y="-443.2" font-family="Helvetica,sans-Serif" font-size="11.00" fill="#222222">структурированный сбор</text>
<text text-anchor="start" x="21.5" y="-432.2" font-family="Helvetica,sans-Serif" font-size="11.00" fill="#222222">поведенческих кейсов</text>
</g>
<!-- S -->
<g id="node2" class="node">
<title>S</title>
<path fill="#e8f0fe" stroke="#999999" d="M135.5,-377C135.5,-377 42.5,-377 42.5,-377 36.5,-377 30.5,-371 30.5,-365 30.5,-365 30.5,-327 30.5,-327 30.5,-321 36.5,-315 42.5,-315 42.5,-315 135.5,-315 135.5,-315 141.5,-315 147.5,-321 147.5,-327 147.5,-327 147.5,-365 147.5,-365 147.5,-371 141.5,-377 135.5,-377"/>
<text text-anchor="start" x="47" y="-360.2" font-family="Helvetica,sans-Serif" font-weight="bold" font-size="11.00" fill="#222222">S — Situation</text>
<text text-anchor="start" x="61.5" y="-349.2" font-family="Helvetica,sans-Serif" font-size="11.00" fill="#222222">контекст</text>
<text text-anchor="start" x="63" y="-338.2" font-family="Helvetica,sans-Serif" font-size="11.00" fill="#222222">и задача</text>
<text text-anchor="start" x="44.5" y="-327.2" font-family="Helvetica,sans-Serif" font-size="11.00" fill="#222222">«где и когда?»</text>
</g>
<!-- M&#45;&gt;S -->
<g id="edge1" class="edge">
<title>M&#45;&gt;S</title>
<path fill="none" stroke="#555555" d="M89,-419.9C89,-409.15 89,-396.31 89,-384.43"/>
<polygon fill="#555555" stroke="#555555" points="91.45,-384.17 89,-377.17 86.55,-384.17 91.45,-384.17"/>
</g>
<!-- T -->
<g id="node3" class="node">
<title>T</title>
<path fill="#e8f0fe" stroke="#999999" d="M127,-272C127,-272 51,-272 51,-272 45,-272 39,-266 39,-260 39,-260 39,-222 39,-222 39,-216 45,-210 51,-210 51,-210 127,-210 127,-210 133,-210 139,-216 139,-222 139,-222 139,-260 139,-260 139,-266 133,-272 127,-272"/>
<text text-anchor="start" x="61.5" y="-255.2" font-family="Helvetica,sans-Serif" font-weight="bold" font-size="11.00" fill="#222222">T — Task</text>
<text text-anchor="start" x="54.5" y="-244.2" font-family="Helvetica,sans-Serif" font-size="11.00" fill="#222222">что именно</text>
<text text-anchor="start" x="53" y="-233.2" font-family="Helvetica,sans-Serif" font-size="11.00" fill="#222222">нужно было</text>
<text text-anchor="start" x="62" y="-222.2" font-family="Helvetica,sans-Serif" font-size="11.00" fill="#222222">сделать?</text>
</g>
<!-- S&#45;&gt;T -->
<g id="edge2" class="edge">
<title>S&#45;&gt;T</title>
<path fill="none" stroke="#555555" d="M89,-314.93C89,-303.82 89,-291.08 89,-279.4"/>
<polygon fill="#555555" stroke="#555555" points="91.45,-279.28 89,-272.28 86.55,-279.28 91.45,-279.28"/>
</g>
<!-- A -->
<g id="node4" class="node">
<title>A</title>
<path fill="#e8f0fe" stroke="#999999" d="M129,-167C129,-167 49,-167 49,-167 43,-167 37,-161 37,-155 37,-155 37,-117 37,-117 37,-111 43,-105 49,-105 49,-105 129,-105 129,-105 135,-105 141,-111 141,-117 141,-117 141,-155 141,-155 141,-161 135,-167 129,-167"/>
<text text-anchor="start" x="55.5" y="-150.2" font-family="Helvetica,sans-Serif" font-weight="bold" font-size="11.00" fill="#222222">A — Action</text>
<text text-anchor="start" x="51" y="-139.2" font-family="Helvetica,sans-Serif" font-size="11.00" fill="#222222">что я сделал</text>
<text text-anchor="start" x="54.5" y="-128.2" font-family="Helvetica,sans-Serif" font-size="11.00" fill="#222222">конкретно?</text>
<text text-anchor="start" x="60" y="-117.2" font-family="Helvetica,sans-Serif" font-size="11.00" fill="#222222">(не «мы»)</text>
</g>
<!-- T&#45;&gt;A -->
<g id="edge3" class="edge">
<title>T&#45;&gt;A</title>
<path fill="none" stroke="#555555" d="M89,-209.93C89,-198.82 89,-186.08 89,-174.4"/>
<polygon fill="#555555" stroke="#555555" points="91.45,-174.28 89,-167.28 86.55,-174.28 91.45,-174.28"/>
</g>
<!-- R -->
<g id="node5" class="node">
<title>R</title>
<path fill="#c8e6c9" stroke="#999999" d="M143.5,-62C143.5,-62 34.5,-62 34.5,-62 28.5,-62 22.5,-56 22.5,-50 22.5,-50 22.5,-12 22.5,-12 22.5,-6 28.5,0 34.5,0 34.5,0 143.5,0 143.5,0 149.5,0 155.5,-6 155.5,-12 155.5,-12 155.5,-50 155.5,-50 155.5,-56 149.5,-62 143.5,-62"/>
<text text-anchor="start" x="55.5" y="-45.2" font-family="Helvetica,sans-Serif" font-weight="bold" font-size="11.00" fill="#222222">R — Result</text>
<text text-anchor="start" x="36.5" y="-34.2" font-family="Helvetica,sans-Serif" font-size="11.00" fill="#222222">какой результат?</text>
<text text-anchor="start" x="66.5" y="-23.2" font-family="Helvetica,sans-Serif" font-size="11.00" fill="#222222">цифры,</text>
<text text-anchor="start" x="71.5" y="-12.2" font-family="Helvetica,sans-Serif" font-size="11.00" fill="#222222">уроки</text>
</g>
<!-- A&#45;&gt;R -->
<g id="edge4" class="edge">
<title>A&#45;&gt;R</title>
<path fill="none" stroke="#555555" d="M89,-104.93C89,-93.82 89,-81.08 89,-69.4"/>
<polygon fill="#555555" stroke="#555555" points="91.45,-69.28 89,-62.28 86.55,-69.28 91.45,-69.28"/>
</g>
</g>
</svg>
