<?xml version="1.0" encoding="UTF-8" standalone="no"?>
<!DOCTYPE svg PUBLIC "-//W3C//DTD SVG 1.1//EN"
 "http://www.w3.org/Graphics/SVG/1.1/DTD/svg11.dtd">
<!-- Generated by graphviz version 2.43.0 (0)
 -->
<!-- Title: 22&#45;bcm&#45;bia&#45;rto&#45;rpo Pages: 1 -->
<svg width="948pt" height="151pt"
 viewBox="0.00 0.00 948.00 150.50" xmlns="http://www.w3.org/2000/svg" xmlns:xlink="http://www.w3.org/1999/xlink">
<g id="graph0" class="graph" transform="scale(1 1) rotate(0) translate(4 146.5)">
<title>22&#45;bcm&#45;bia&#45;rto&#45;rpo</title>
<!-- B -->
<g id="node1" class="node">
<title>B</title>
<path fill="#ffe0b2" stroke="#999999" d="M212,-99.5C212,-99.5 12,-99.5 12,-99.5 6,-99.5 0,-93.5 0,-87.5 0,-87.5 0,-60.5 0,-60.5 0,-54.5 6,-48.5 12,-48.5 12,-48.5 212,-48.5 212,-48.5 218,-48.5 224,-54.5 224,-60.5 224,-60.5 224,-87.5 224,-87.5 224,-93.5 218,-99.5 212,-99.5"/>
<text text-anchor="start" x="14" y="-82.7" font-family="Helvetica,sans-Serif" font-weight="bold" font-size="11.00" fill="#222222">BIA — Business Impact Analysis</text>
<text text-anchor="start" x="42" y="-71.7" font-family="Helvetica,sans-Serif" font-size="11.00" fill="#222222">критические процессы,</text>
<text text-anchor="start" x="53" y="-60.7" font-family="Helvetica,sans-Serif" font-size="11.00" fill="#222222">их stoimost простоя</text>
</g>
<!-- C -->
<g id="node2" class="node">
<title>C</title>
<path fill="#e8f0fe" stroke="#999999" d="M431,-110.5C431,-110.5 279,-110.5 279,-110.5 273,-110.5 267,-104.5 267,-98.5 267,-98.5 267,-49.5 267,-49.5 267,-43.5 273,-37.5 279,-37.5 279,-37.5 431,-37.5 431,-37.5 437,-37.5 443,-43.5 443,-49.5 443,-49.5 443,-98.5 443,-98.5 443,-104.5 437,-110.5 431,-110.5"/>
<text text-anchor="start" x="281" y="-93.7" font-family="Helvetica,sans-Serif" font-weight="bold" font-size="11.00" fill="#222222">Критические процессы</text>
<text text-anchor="start" x="308" y="-82.7" font-family="Helvetica,sans-Serif" font-size="11.00" fill="#222222">те, чей простой</text>
<text text-anchor="start" x="326.5" y="-71.7" font-family="Helvetica,sans-Serif" font-size="11.00" fill="#222222">&gt; 4 часов</text>
<text text-anchor="start" x="330.5" y="-60.7" font-family="Helvetica,sans-Serif" font-size="11.00" fill="#222222">наносит</text>
<text text-anchor="start" x="302.5" y="-49.7" font-family="Helvetica,sans-Serif" font-size="11.00" fill="#222222">серьёзный ущерб</text>
</g>
<!-- B&#45;&gt;C -->
<g id="edge1" class="edge">
<title>B&#45;&gt;C</title>
<path fill="none" stroke="#555555" d="M224.33,-74C236.18,-74 248.14,-74 259.77,-74"/>
<polygon fill="#555555" stroke="#555555" points="259.96,-76.45 266.96,-74 259.96,-71.55 259.96,-76.45"/>
</g>
<!-- RTO -->
<g id="node3" class="node">
<title>RTO</title>
<path fill="#e8f0fe" stroke="#999999" d="M701.5,-142.5C701.5,-142.5 499.5,-142.5 499.5,-142.5 493.5,-142.5 487.5,-136.5 487.5,-130.5 487.5,-130.5 487.5,-103.5 487.5,-103.5 487.5,-97.5 493.5,-91.5 499.5,-91.5 499.5,-91.5 701.5,-91.5 701.5,-91.5 707.5,-91.5 713.5,-97.5 713.5,-103.5 713.5,-103.5 713.5,-130.5 713.5,-130.5 713.5,-136.5 707.5,-142.5 701.5,-142.5"/>
<text text-anchor="start" x="501.5" y="-125.7" font-family="Helvetica,sans-Serif" font-weight="bold" font-size="11.00" fill="#222222">RTO — Recovery Time Objective</text>
<text text-anchor="start" x="524" y="-114.7" font-family="Helvetica,sans-Serif" font-size="11.00" fill="#222222">максимально допустимое</text>
<text text-anchor="start" x="533" y="-103.7" font-family="Helvetica,sans-Serif" font-size="11.00" fill="#222222">время восстановления</text>
</g>
<!-- C&#45;&gt;RTO -->
<g id="edge2" class="edge">
<title>C&#45;&gt;RTO</title>
<path fill="none" stroke="#555555" d="M443.22,-89.4C455.31,-91.54 467.9,-93.76 480.44,-95.98"/>
<polygon fill="#555555" stroke="#555555" points="480.09,-98.4 487.41,-97.21 480.94,-93.58 480.09,-98.4"/>
</g>
<!-- RPO -->
<g id="node4" class="node">
<title>RPO</title>
<path fill="#e8f0fe" stroke="#999999" d="M703,-62C703,-62 498,-62 498,-62 492,-62 486,-56 486,-50 486,-50 486,-12 486,-12 486,-6 492,0 498,0 498,0 703,0 703,0 709,0 715,-6 715,-12 715,-12 715,-50 715,-50 715,-56 709,-62 703,-62"/>
<text text-anchor="start" x="500" y="-45.2" font-family="Helvetica,sans-Serif" font-weight="bold" font-size="11.00" fill="#222222">RPO — Recovery Point Objective</text>
<text text-anchor="start" x="524" y="-34.2" font-family="Helvetica,sans-Serif" font-size="11.00" fill="#222222">максимально допустимая</text>
<text text-anchor="start" x="555" y="-23.2" font-family="Helvetica,sans-Serif" font-size="11.00" fill="#222222">потеря данных</text>
<text text-anchor="start" x="561.5" y="-12.2" font-family="Helvetica,sans-Serif" font-size="11.00" fill="#222222">(по времени)</text>
</g>
<!-- C&#45;&gt;RPO -->
<g id="edge3" class="edge">
<title>C&#45;&gt;RPO</title>
<path fill="none" stroke="#555555" d="M443.22,-58.6C454.74,-56.56 466.71,-54.45 478.67,-52.34"/>
<polygon fill="#555555" stroke="#555555" points="479.24,-54.72 485.71,-51.09 478.39,-49.9 479.24,-54.72"/>
</g>
<!-- P -->
<g id="node5" class="node">
<title>P</title>
<path fill="#c8e6c9" stroke="#999999" d="M928,-142.5C928,-142.5 770,-142.5 770,-142.5 764,-142.5 758,-136.5 758,-130.5 758,-130.5 758,-103.5 758,-103.5 758,-97.5 764,-91.5 770,-91.5 770,-91.5 928,-91.5 928,-91.5 934,-91.5 940,-97.5 940,-103.5 940,-103.5 940,-130.5 940,-130.5 940,-136.5 934,-142.5 928,-142.5"/>
<text text-anchor="start" x="772" y="-125.7" font-family="Helvetica,sans-Serif" font-weight="bold" font-size="11.00" fill="#222222">Business Continuity Plan</text>
<text text-anchor="start" x="778.5" y="-114.7" font-family="Helvetica,sans-Serif" font-size="11.00" fill="#222222">как продолжать бизнес</text>
<text text-anchor="start" x="781.5" y="-103.7" font-family="Helvetica,sans-Serif" font-size="11.00" fill="#222222">в условиях нарушения</text>
</g>
<!-- RTO&#45;&gt;P -->
<g id="edge4" class="edge">
<title>RTO&#45;&gt;P</title>
<path fill="none" stroke="#555555" d="M713.57,-117C726.01,-117 738.6,-117 750.83,-117"/>
<polygon fill="#555555" stroke="#555555" points="750.99,-119.45 757.99,-117 750.99,-114.55 750.99,-119.45"/>
</g>
<!-- D -->
<g id="node6" class="node">
<title>D</title>
<path fill="#e1bee7" stroke="#999999" d="M923.5,-56.5C923.5,-56.5 774.5,-56.5 774.5,-56.5 768.5,-56.5 762.5,-50.5 762.5,-44.5 762.5,-44.5 762.5,-17.5 762.5,-17.5 762.5,-11.5 768.5,-5.5 774.5,-5.5 774.5,-5.5 923.5,-5.5 923.5,-5.5 929.5,-5.5 935.5,-11.5 935.5,-17.5 935.5,-17.5 935.5,-44.5 935.5,-44.5 935.5,-50.5 929.5,-56.5 923.5,-56.5"/>
<text text-anchor="start" x="776.5" y="-39.7" font-family="Helvetica,sans-Serif" font-weight="bold" font-size="11.00" fill="#222222">Disaster Recovery Plan</text>
<text text-anchor="start" x="796" y="-28.7" font-family="Helvetica,sans-Serif" font-size="11.00" fill="#222222">как восстановить</text>
<text text-anchor="start" x="790" y="-17.7" font-family="Helvetica,sans-Serif" font-size="11.00" fill="#222222">ИТ&#45;инфраструктуру</text>
</g>
<!-- RPO&#45;&gt;D -->
<g id="edge5" class="edge">
<title>RPO&#45;&gt;D</title>
<path fill="none" stroke="#555555" d="M715.01,-31C728.44,-31 742.03,-31 755.13,-31"/>
<polygon fill="#555555" stroke="#555555" points="755.36,-33.45 762.36,-31 755.36,-28.55 755.36,-33.45"/>
</g>
</g>
</svg>
