<?xml version="1.0" encoding="UTF-8" standalone="no"?>
<!DOCTYPE svg PUBLIC "-//W3C//DTD SVG 1.1//EN"
 "http://www.w3.org/Graphics/SVG/1.1/DTD/svg11.dtd">
<!-- Generated by graphviz version 2.43.0 (0)
 -->
<!-- Title: 26&#45;covey&#45;7&#45;habits Pages: 1 -->
<svg width="278pt" height="377pt"
 viewBox="0.00 0.00 278.00 377.00" xmlns="http://www.w3.org/2000/svg" xmlns:xlink="http://www.w3.org/1999/xlink">
<g id="graph0" class="graph" transform="scale(1 1) rotate(0) translate(4 373)">
<title>26&#45;covey&#45;7&#45;habits</title>
<!-- C -->
<g id="node1" class="node">
<title>C</title>
<path fill="#ffe0b2" stroke="#999999" d="M226,-369C226,-369 44,-369 44,-369 38,-369 32,-363 32,-357 32,-357 32,-327 32,-327 32,-321 38,-315 44,-315 44,-315 226,-315 226,-315 232,-315 238,-321 238,-327 238,-327 238,-357 238,-357 238,-363 232,-369 226,-369"/>
<text text-anchor="start" x="99" y="-351.2" font-family="Helvetica,sans-Serif" font-size="11.00" fill="#222222">**7 навыков</text>
<text text-anchor="start" x="46" y="-339.2" font-family="Helvetica,sans-Serif" font-size="11.00" fill="#222222">высокоэффективных людей**</text>
<text text-anchor="start" x="93" y="-327.2" font-family="Helvetica,sans-Serif" font-size="11.00" fill="#222222">Stephen Covey</text>
</g>
<!-- P -->
<g id="node2" class="node">
<title>P</title>
<path fill="#bbdefb" stroke="#999999" d="M202,-272C202,-272 68,-272 68,-272 62,-272 56,-266 56,-260 56,-260 56,-222 56,-222 56,-216 62,-210 68,-210 68,-210 202,-210 202,-210 208,-210 214,-216 214,-222 214,-222 214,-260 214,-260 214,-266 208,-272 202,-272"/>
<text text-anchor="start" x="70" y="-255.2" font-family="Helvetica,sans-Serif" font-weight="bold" font-size="11.00" fill="#222222">Личная победа (1&#45;3)</text>
<text text-anchor="start" x="76.5" y="-244.2" font-family="Helvetica,sans-Serif" font-size="11.00" fill="#222222">1. Будь проактивен</text>
<text text-anchor="start" x="77.5" y="-233.2" font-family="Helvetica,sans-Serif" font-size="11.00" fill="#222222">2. Начинай с конца</text>
<text text-anchor="start" x="77.5" y="-222.2" font-family="Helvetica,sans-Serif" font-size="11.00" fill="#222222">3. Сначала главное</text>
</g>
<!-- C&#45;&gt;P -->
<g id="edge1" class="edge">
<title>C&#45;&gt;P</title>
<path fill="none" stroke="#555555" d="M135,-314.99C135,-304.08 135,-291.18 135,-279.29"/>
<polygon fill="#555555" stroke="#555555" points="137.45,-279.04 135,-272.04 132.55,-279.04 137.45,-279.04"/>
</g>
<!-- PU -->
<g id="node3" class="node">
<title>PU</title>
<path fill="#c8e6c9" stroke="#999999" d="M258,-167C258,-167 12,-167 12,-167 6,-167 0,-161 0,-155 0,-155 0,-117 0,-117 0,-111 6,-105 12,-105 12,-105 258,-105 258,-105 264,-105 270,-111 270,-117 270,-117 270,-155 270,-155 270,-161 264,-167 258,-167"/>
<text text-anchor="start" x="71.5" y="-150.2" font-family="Helvetica,sans-Serif" font-weight="bold" font-size="11.00" fill="#222222">Общая победа (4&#45;6)</text>
<text text-anchor="start" x="86.5" y="-139.2" font-family="Helvetica,sans-Serif" font-size="11.00" fill="#222222">4. Думай win&#45;win</text>
<text text-anchor="start" x="14" y="-128.2" font-family="Helvetica,sans-Serif" font-size="11.00" fill="#222222">5. Сначала понять, потом быть понятым</text>
<text text-anchor="start" x="99.5" y="-117.2" font-family="Helvetica,sans-Serif" font-size="11.00" fill="#222222">6. Синергия</text>
</g>
<!-- P&#45;&gt;PU -->
<g id="edge2" class="edge">
<title>P&#45;&gt;PU</title>
<path fill="none" stroke="#555555" d="M135,-209.93C135,-198.82 135,-186.08 135,-174.4"/>
<polygon fill="#555555" stroke="#555555" points="137.45,-174.28 135,-167.28 132.55,-174.28 137.45,-174.28"/>
</g>
<!-- R -->
<g id="node4" class="node">
<title>R</title>
<path fill="#e8f0fe" stroke="#999999" d="M193.5,-62C193.5,-62 76.5,-62 76.5,-62 70.5,-62 64.5,-56 64.5,-50 64.5,-50 64.5,-12 64.5,-12 64.5,-6 70.5,0 76.5,0 76.5,0 193.5,0 193.5,0 199.5,0 205.5,-6 205.5,-12 205.5,-12 205.5,-50 205.5,-50 205.5,-56 199.5,-62 193.5,-62"/>
<text text-anchor="start" x="85.5" y="-45.2" font-family="Helvetica,sans-Serif" font-weight="bold" font-size="11.00" fill="#222222">Обновление (7)</text>
<text text-anchor="start" x="78.5" y="-34.2" font-family="Helvetica,sans-Serif" font-size="11.00" fill="#222222">7. Затачивай пилу:</text>
<text text-anchor="start" x="85" y="-23.2" font-family="Helvetica,sans-Serif" font-size="11.00" fill="#222222">физика, дух, ум,</text>
<text text-anchor="start" x="100" y="-12.2" font-family="Helvetica,sans-Serif" font-size="11.00" fill="#222222">социальное</text>
</g>
<!-- PU&#45;&gt;R -->
<g id="edge3" class="edge">
<title>PU&#45;&gt;R</title>
<path fill="none" stroke="#555555" d="M135,-104.93C135,-93.82 135,-81.08 135,-69.4"/>
<polygon fill="#555555" stroke="#555555" points="137.45,-69.28 135,-62.28 132.55,-69.28 137.45,-69.28"/>
</g>
</g>
</svg>
