<?xml version="1.0" encoding="UTF-8" standalone="no"?>
<!DOCTYPE svg PUBLIC "-//W3C//DTD SVG 1.1//EN"
 "http://www.w3.org/Graphics/SVG/1.1/DTD/svg11.dtd">
<!-- Generated by graphviz version 2.43.0 (0)
 -->
<!-- Title: forecasting&#45;hierarchical Pages: 1 -->
<svg width="676pt" height="258pt"
 viewBox="0.00 0.00 676.00 258.00" xmlns="http://www.w3.org/2000/svg" xmlns:xlink="http://www.w3.org/1999/xlink">
<g id="graph0" class="graph" transform="scale(1 1) rotate(0) translate(4 254)">
<title>forecasting&#45;hierarchical</title>
<!-- H -->
<g id="node1" class="node">
<title>H</title>
<path fill="#ffe0b2" stroke="#999999" d="M410,-250C410,-250 282,-250 282,-250 276,-250 270,-244 270,-238 270,-238 270,-211 270,-211 270,-205 276,-199 282,-199 282,-199 410,-199 410,-199 416,-199 422,-205 422,-211 422,-211 422,-238 422,-238 422,-244 416,-250 410,-250"/>
<text text-anchor="start" x="295" y="-233.2" font-family="Helvetica,sans-Serif" font-weight="bold" font-size="11.00" fill="#222222">Иерархия рядов</text>
<text text-anchor="start" x="284" y="-222.2" font-family="Helvetica,sans-Serif" font-size="11.00" fill="#222222">товар → категория →</text>
<text text-anchor="start" x="303.5" y="-211.2" font-family="Helvetica,sans-Serif" font-size="11.00" fill="#222222">регион → итог</text>
</g>
<!-- BU -->
<g id="node2" class="node">
<title>BU</title>
<path fill="#bbdefb" stroke="#999999" d="M196,-156C196,-156 12,-156 12,-156 6,-156 0,-150 0,-144 0,-144 0,-106 0,-106 0,-100 6,-94 12,-94 12,-94 196,-94 196,-94 202,-94 208,-100 208,-106 208,-106 208,-144 208,-144 208,-150 202,-156 196,-156"/>
<text text-anchor="start" x="71.5" y="-139.2" font-family="Helvetica,sans-Serif" font-weight="bold" font-size="11.00" fill="#222222">Bottom&#45;up</text>
<text text-anchor="start" x="14" y="-128.2" font-family="Helvetica,sans-Serif" font-size="11.00" fill="#222222">прогноз внизу → сумма вверх.</text>
<text text-anchor="start" x="41" y="-117.2" font-family="Helvetica,sans-Serif" font-size="11.00" fill="#222222">Точно внизу, ошибки</text>
<text text-anchor="start" x="58" y="-106.2" font-family="Helvetica,sans-Serif" font-size="11.00" fill="#222222">накапливаются</text>
</g>
<!-- H&#45;&gt;BU -->
<g id="edge1" class="edge">
<title>H&#45;&gt;BU</title>
<path fill="none" stroke="#555555" d="M284.93,-198.9C254.87,-186.78 218.2,-172.01 185.75,-158.94"/>
<polygon fill="#555555" stroke="#555555" points="186.3,-156.52 178.89,-156.17 184.47,-161.06 186.3,-156.52"/>
</g>
<!-- TD -->
<g id="node3" class="node">
<title>TD</title>
<path fill="#e8f0fe" stroke="#999999" d="M443,-156C443,-156 249,-156 249,-156 243,-156 237,-150 237,-144 237,-144 237,-106 237,-106 237,-100 243,-94 249,-94 249,-94 443,-94 443,-94 449,-94 455,-100 455,-106 455,-106 455,-144 455,-144 455,-150 449,-156 443,-156"/>
<text text-anchor="start" x="316.5" y="-139.2" font-family="Helvetica,sans-Serif" font-weight="bold" font-size="11.00" fill="#222222">Top&#45;down</text>
<text text-anchor="start" x="251" y="-128.2" font-family="Helvetica,sans-Serif" font-size="11.00" fill="#222222">прогноз агрегата → разверстка.</text>
<text text-anchor="start" x="290" y="-117.2" font-family="Helvetica,sans-Serif" font-size="11.00" fill="#222222">Стабильно вверху,</text>
<text text-anchor="start" x="278" y="-106.2" font-family="Helvetica,sans-Serif" font-size="11.00" fill="#222222">теряет специфику SKU</text>
</g>
<!-- H&#45;&gt;TD -->
<g id="edge2" class="edge">
<title>H&#45;&gt;TD</title>
<path fill="none" stroke="#555555" d="M346,-198.9C346,-188.15 346,-175.31 346,-163.43"/>
<polygon fill="#555555" stroke="#555555" points="348.45,-163.17 346,-156.17 343.55,-163.17 348.45,-163.17"/>
</g>
<!-- MO -->
<g id="node4" class="node">
<title>MO</title>
<path fill="#e8f0fe" stroke="#999999" d="M656,-150.5C656,-150.5 496,-150.5 496,-150.5 490,-150.5 484,-144.5 484,-138.5 484,-138.5 484,-111.5 484,-111.5 484,-105.5 490,-99.5 496,-99.5 496,-99.5 656,-99.5 656,-99.5 662,-99.5 668,-105.5 668,-111.5 668,-111.5 668,-138.5 668,-138.5 668,-144.5 662,-150.5 656,-150.5"/>
<text text-anchor="start" x="542.5" y="-133.7" font-family="Helvetica,sans-Serif" font-weight="bold" font-size="11.00" fill="#222222">Middle&#45;out</text>
<text text-anchor="start" x="498" y="-122.7" font-family="Helvetica,sans-Serif" font-size="11.00" fill="#222222">гибрид с промежуточного</text>
<text text-anchor="start" x="511" y="-111.7" font-family="Helvetica,sans-Serif" font-size="11.00" fill="#222222">уровня в обе стороны</text>
</g>
<!-- H&#45;&gt;MO -->
<g id="edge3" class="edge">
<title>H&#45;&gt;MO</title>
<path fill="none" stroke="#555555" d="M404.04,-198.9C436.73,-185.04 477.63,-167.7 511.34,-153.41"/>
<polygon fill="#555555" stroke="#555555" points="512.49,-155.58 517.98,-150.6 510.58,-151.07 512.49,-155.58"/>
</g>
<!-- MT -->
<g id="node5" class="node">
<title>MT</title>
<path fill="#c8e6c9" stroke="#999999" d="M451.5,-51C451.5,-51 240.5,-51 240.5,-51 234.5,-51 228.5,-45 228.5,-39 228.5,-39 228.5,-12 228.5,-12 228.5,-6 234.5,0 240.5,0 240.5,0 451.5,0 451.5,0 457.5,0 463.5,-6 463.5,-12 463.5,-12 463.5,-39 463.5,-39 463.5,-45 457.5,-51 451.5,-51"/>
<text text-anchor="start" x="256.5" y="-34.2" font-family="Helvetica,sans-Serif" font-weight="bold" font-size="11.00" fill="#222222">MinT (optimal reconciliation)</text>
<text text-anchor="start" x="242.5" y="-23.2" font-family="Helvetica,sans-Serif" font-size="11.00" fill="#222222">оптимально согласует все уровни,</text>
<text text-anchor="start" x="244.5" y="-12.2" font-family="Helvetica,sans-Serif" font-size="11.00" fill="#222222">строго лучше bottom&#45;up / top&#45;down</text>
</g>
<!-- BU&#45;&gt;MT -->
<g id="edge4" class="edge">
<title>BU&#45;&gt;MT</title>
<path fill="none" stroke="#555555" d="M178.58,-93.95C210.48,-81.1 247.44,-66.21 278.52,-53.69"/>
<polygon fill="#555555" stroke="#555555" points="279.48,-55.94 285.05,-51.06 277.64,-51.4 279.48,-55.94"/>
</g>
<!-- TD&#45;&gt;MT -->
<g id="edge5" class="edge">
<title>TD&#45;&gt;MT</title>
<path fill="none" stroke="#555555" d="M346,-93.95C346,-82.66 346,-69.79 346,-58.34"/>
<polygon fill="#555555" stroke="#555555" points="348.45,-58.06 346,-51.06 343.55,-58.06 348.45,-58.06"/>
</g>
<!-- MO&#45;&gt;MT -->
<g id="edge6" class="edge">
<title>MO&#45;&gt;MT</title>
<path fill="none" stroke="#555555" d="M517.96,-99.4C485.27,-85.54 444.37,-68.2 410.66,-53.91"/>
<polygon fill="#555555" stroke="#555555" points="411.42,-51.57 404.02,-51.1 409.51,-56.08 411.42,-51.57"/>
</g>
</g>
</svg>
