<?xml version="1.0" encoding="UTF-8" standalone="no"?>
<!DOCTYPE svg PUBLIC "-//W3C//DTD SVG 1.1//EN"
 "http://www.w3.org/Graphics/SVG/1.1/DTD/svg11.dtd">
<!-- Generated by graphviz version 2.43.0 (0)
 -->
<!-- Title: forecasting&#45;systems Pages: 1 -->
<svg width="850pt" height="153pt"
 viewBox="0.00 0.00 849.50 153.00" xmlns="http://www.w3.org/2000/svg" xmlns:xlink="http://www.w3.org/1999/xlink">
<g id="graph0" class="graph" transform="scale(1 1) rotate(0) translate(4 149)">
<title>forecasting&#45;systems</title>
<!-- S -->
<g id="node1" class="node">
<title>S</title>
<path fill="#ffe0b2" stroke="#999999" d="M508.5,-145C508.5,-145 305.5,-145 305.5,-145 299.5,-145 293.5,-139 293.5,-133 293.5,-133 293.5,-117 293.5,-117 293.5,-111 299.5,-105 305.5,-105 305.5,-105 508.5,-105 508.5,-105 514.5,-105 520.5,-111 520.5,-117 520.5,-117 520.5,-133 520.5,-133 520.5,-139 514.5,-145 508.5,-145"/>
<text text-anchor="start" x="322.5" y="-128.2" font-family="Helvetica,sans-Serif" font-weight="bold" font-size="11.00" fill="#222222">Системы прогнозирования</text>
<text text-anchor="start" x="307.5" y="-117.2" font-family="Helvetica,sans-Serif" font-size="11.00" fill="#222222">(Gartner MQ Supply Chain Planning)</text>
</g>
<!-- L -->
<g id="node2" class="node">
<title>L</title>
<path fill="#c8e6c9" stroke="#999999" d="M158,-56.5C158,-56.5 12,-56.5 12,-56.5 6,-56.5 0,-50.5 0,-44.5 0,-44.5 0,-17.5 0,-17.5 0,-11.5 6,-5.5 12,-5.5 12,-5.5 158,-5.5 158,-5.5 164,-5.5 170,-11.5 170,-17.5 170,-17.5 170,-44.5 170,-44.5 170,-50.5 164,-56.5 158,-56.5"/>
<text text-anchor="start" x="30.5" y="-39.7" font-family="Helvetica,sans-Serif" font-weight="bold" font-size="11.00" fill="#222222">Лидеры MQ 2024</text>
<text text-anchor="start" x="24.5" y="-28.7" font-family="Helvetica,sans-Serif" font-size="11.00" fill="#222222">Kinaxis, Oracle, OMP,</text>
<text text-anchor="start" x="14" y="-17.7" font-family="Helvetica,sans-Serif" font-size="11.00" fill="#222222">Logility, SAP, Blue Yonder</text>
</g>
<!-- S&#45;&gt;L -->
<g id="edge1" class="edge">
<title>S&#45;&gt;L</title>
<path fill="none" stroke="#555555" d="M336.58,-104.87C292.63,-92.82 234.94,-76.8 184,-62 180.13,-60.88 176.18,-59.72 172.2,-58.54"/>
<polygon fill="#555555" stroke="#555555" points="172.87,-56.19 165.46,-56.55 171.48,-60.89 172.87,-56.19"/>
</g>
<!-- AF -->
<g id="node3" class="node">
<title>AF</title>
<path fill="#e8f0fe" stroke="#999999" d="M389,-62C389,-62 211,-62 211,-62 205,-62 199,-56 199,-50 199,-50 199,-12 199,-12 199,-6 205,0 211,0 211,0 389,0 389,0 395,0 401,-6 401,-12 401,-12 401,-50 401,-50 401,-56 395,-62 389,-62"/>
<text text-anchor="start" x="247" y="-45.2" font-family="Helvetica,sans-Serif" font-weight="bold" font-size="11.00" fill="#222222">Amazon Forecast</text>
<text text-anchor="start" x="213" y="-34.2" font-family="Helvetica,sans-Serif" font-size="11.00" fill="#222222">6 движков (ARIMA, ETS, NPTS,</text>
<text text-anchor="start" x="218" y="-23.2" font-family="Helvetica,sans-Serif" font-size="11.00" fill="#222222">Prophet, DeepAR+, CNN&#45;QR),</text>
<text text-anchor="start" x="259" y="-12.2" font-family="Helvetica,sans-Serif" font-size="11.00" fill="#222222">AutoML&#45;выбор</text>
</g>
<!-- S&#45;&gt;AF -->
<g id="edge2" class="edge">
<title>S&#45;&gt;AF</title>
<path fill="none" stroke="#555555" d="M384.83,-104.94C372.07,-93.97 355.65,-79.84 340.65,-66.95"/>
<polygon fill="#555555" stroke="#555555" points="342.11,-64.97 335.2,-62.27 338.91,-68.69 342.11,-64.97"/>
</g>
<!-- P -->
<g id="node4" class="node">
<title>P</title>
<path fill="#bbdefb" stroke="#999999" d="M587.5,-62C587.5,-62 442.5,-62 442.5,-62 436.5,-62 430.5,-56 430.5,-50 430.5,-50 430.5,-12 430.5,-12 430.5,-6 436.5,0 442.5,0 442.5,0 587.5,0 587.5,0 593.5,0 599.5,-6 599.5,-12 599.5,-12 599.5,-50 599.5,-50 599.5,-56 593.5,-62 587.5,-62"/>
<text text-anchor="start" x="466" y="-45.2" font-family="Helvetica,sans-Serif" font-weight="bold" font-size="11.00" fill="#222222">Вероятностные</text>
<text text-anchor="start" x="456" y="-34.2" font-family="Helvetica,sans-Serif" font-size="11.00" fill="#222222">ToolsGroup, RELEX —</text>
<text text-anchor="start" x="448" y="-23.2" font-family="Helvetica,sans-Serif" font-size="11.00" fill="#222222">распределения спроса</text>
<text text-anchor="start" x="444.5" y="-12.2" font-family="Helvetica,sans-Serif" font-size="11.00" fill="#222222">(квантили) для запасов</text>
</g>
<!-- S&#45;&gt;P -->
<g id="edge3" class="edge">
<title>S&#45;&gt;P</title>
<path fill="none" stroke="#555555" d="M429.38,-104.94C442.25,-93.97 458.83,-79.84 473.97,-66.95"/>
<polygon fill="#555555" stroke="#555555" points="475.73,-68.67 479.47,-62.27 472.55,-64.94 475.73,-68.67"/>
</g>
<!-- K -->
<g id="node5" class="node">
<title>K</title>
<path fill="#e1bee7" stroke="#999999" d="M829.5,-62C829.5,-62 640.5,-62 640.5,-62 634.5,-62 628.5,-56 628.5,-50 628.5,-50 628.5,-12 628.5,-12 628.5,-6 634.5,0 640.5,0 640.5,0 829.5,0 829.5,0 835.5,0 841.5,-6 841.5,-12 841.5,-12 841.5,-50 841.5,-50 841.5,-56 835.5,-62 829.5,-62"/>
<text text-anchor="start" x="655.5" y="-45.2" font-family="Helvetica,sans-Serif" font-weight="bold" font-size="11.00" fill="#222222">Enterprise&#45;планирование</text>
<text text-anchor="start" x="673" y="-34.2" font-family="Helvetica,sans-Serif" font-size="11.00" fill="#222222">o9 (knowledge graph),</text>
<text text-anchor="start" x="642.5" y="-23.2" font-family="Helvetica,sans-Serif" font-size="11.00" fill="#222222">SAP IBP, Blue Yonder Luminate —</text>
<text text-anchor="start" x="673.5" y="-12.2" font-family="Helvetica,sans-Serif" font-size="11.00" fill="#222222">ML + demand sensing</text>
</g>
<!-- S&#45;&gt;K -->
<g id="edge4" class="edge">
<title>S&#45;&gt;K</title>
<path fill="none" stroke="#555555" d="M474.96,-104.94C517.26,-93.07 572.71,-77.52 621.54,-63.83"/>
<polygon fill="#555555" stroke="#555555" points="622.3,-66.16 628.38,-61.91 620.98,-61.44 622.3,-66.16"/>
</g>
</g>
</svg>
